<?xml version="1.0" standalone="no"?>
<!DOCTYPE svg PUBLIC "-//W3C//DTD SVG 20010904//EN"
 "http://www.w3.org/TR/2001/REC-SVG-20010904/DTD/svg10.dtd">
<svg version="1.0" xmlns="http://www.w3.org/2000/svg"
 width="512.000000pt" height="512.000000pt" viewBox="0 0 512.000000 512.000000"
 preserveAspectRatio="xMidYMid meet">
<metadata>
Created by potrace 1.14, written by Peter Selinger 2001-2017
</metadata>
<g transform="translate(0.000000,512.000000) scale(0.100000,-0.100000)"
fill="#000000" stroke="none">
<path d="M3480 4008 c0 -13 -5 -30 -10 -38 -8 -12 -10 -12 -11 5 0 19 -1 19
-8 2 -5 -15 -20 -19 -69 -21 -34 -2 -65 -6 -69 -10 -4 -3 12 -5 35 -3 23 2 47
0 52 -3 6 -4 -15 -8 -46 -9 -31 -1 -60 -4 -65 -6 -4 -3 -10 -1 -14 5 -4 6 -13
7 -23 1 -9 -4 -23 -6 -29 -4 -7 3 -13 0 -13 -6 0 -6 -8 -8 -17 -4 -10 3 -15 3
-11 -2 7 -7 71 -15 126 -15 12 0 25 -7 28 -15 4 -8 14 -15 23 -16 11 0 9 -3
-6 -9 -35 -14 -27 -30 15 -31 29 0 33 -2 17 -9 -11 -4 -32 -5 -47 -3 -18 4
-28 1 -28 -7 0 -7 7 -10 15 -6 8 3 25 1 37 -5 l23 -10 -24 5 c-17 3 -25 0 -28
-15 -3 -10 -10 -16 -17 -12 -6 3 -3 -3 8 -15 10 -11 30 -23 45 -25 14 -2 7 -4
-17 -4 -60 0 -66 -13 -6 -15 27 0 55 -1 62 -1 9 1 8 -5 -4 -18 -20 -22 -25
-24 -18 -6 2 7 -4 13 -16 14 -11 1 -20 -3 -20 -8 0 -6 -5 -7 -12 -3 -7 4 -8 3
-4 -4 7 -12 -20 -15 -128 -14 -24 0 -33 -3 -25 -9 7 -4 16 -6 20 -3 4 2 10 0
14 -6 3 -5 2 -10 -4 -10 -6 0 -8 -7 -5 -15 4 -9 0 -15 -9 -15 -9 0 -18 10 -20
23 l-4 22 -2 -22 c-1 -24 -3 -25 -198 -26 -24 0 -43 -4 -43 -9 0 -5 10 -6 23
-3 21 7 21 6 5 -11 -15 -15 -19 -15 -35 -3 -16 12 -17 12 -6 -2 7 -9 11 -18 9
-20 -2 -2 11 -5 30 -5 19 -1 34 2 34 7 0 5 7 6 15 3 11 -5 13 -2 9 10 -3 9
-10 14 -14 11 -5 -3 -11 -2 -14 3 -2 4 11 8 29 8 30 0 32 -2 23 -19 -7 -13 -6
-23 1 -30 8 -8 11 -8 12 1 3 26 4 31 10 37 4 3 6 -5 5 -17 -1 -18 4 -23 21
-22 13 1 20 -3 17 -7 -3 -5 -9 -7 -14 -4 -5 3 -11 -5 -13 -17 l-4 -23 -2 23
c0 12 -5 22 -11 22 -5 0 -7 -6 -4 -14 3 -8 1 -17 -5 -20 -6 -4 -7 -14 -4 -22
5 -13 7 -13 14 -2 5 8 9 9 9 2 0 -6 -8 -18 -17 -25 -11 -10 -14 -10 -9 -1 4 7
2 12 -4 12 -6 0 -9 4 -6 8 2 4 1 14 -5 22 -5 10 -9 11 -9 3 0 -7 -6 -10 -13
-7 -8 3 -20 -2 -27 -11 -7 -8 -20 -15 -29 -16 -11 0 -12 -2 -3 -6 7 -3 19 1
27 7 12 10 15 10 15 1 0 -8 8 -10 20 -6 11 4 20 2 20 -4 0 -6 -14 -11 -31 -11
-18 0 -28 -4 -24 -10 4 -6 11 -8 16 -4 6 3 19 -2 29 -11 17 -15 22 -16 37 -4
16 13 17 12 5 -3 -9 -11 -24 -16 -43 -14 -33 4 -42 -3 -29 -24 6 -10 12 -11
22 -2 10 7 18 8 28 0 12 -8 12 -9 -2 -4 -10 3 -18 0 -18 -5 0 -6 -9 -9 -20 -6
-11 3 -20 2 -20 -2 0 -9 -31 -8 -47 2 -6 4 -15 2 -19 -4 -4 -8 -9 -7 -15 2 -7
11 -9 11 -9 -2 0 -14 11 -16 70 -14 39 1 73 -2 76 -7 3 -4 -6 -8 -20 -8 -14 0
-26 -4 -26 -9 0 -6 9 -8 21 -6 17 3 19 1 9 -9 -8 -11 -8 -15 2 -19 7 -2 0 -4
-17 -4 -16 0 -25 2 -18 4 10 3 10 9 0 24 -6 10 -16 19 -21 19 -5 0 -6 -3 -3
-7 4 -3 1 -13 -6 -21 -9 -13 -9 -14 1 -8 6 4 12 2 12 -3 0 -6 -8 -11 -17 -11
-15 0 -16 -2 -3 -10 12 -7 10 -9 -7 -7 -12 0 -19 5 -17 9 3 4 -2 8 -10 8 -9 0
-16 -4 -16 -10 0 -5 -7 -10 -16 -10 -12 0 -15 7 -12 25 4 17 1 25 -9 25 -9 0
-13 -6 -9 -15 3 -9 0 -15 -9 -15 -8 0 -15 -4 -15 -10 0 -15 -47 -12 -53 3 -4
10 -6 10 -6 0 -1 -7 -12 -13 -26 -13 -20 0 -25 6 -31 38 -4 20 -9 31 -11 24
-3 -6 -9 -10 -14 -6 -5 3 -10 -10 -10 -28 -1 -23 -3 -26 -6 -10 -2 12 -9 22
-14 22 -5 0 -9 -10 -9 -22 0 -19 -2 -20 -10 -8 -6 10 -10 11 -10 3 0 -7 -9
-13 -19 -13 -15 0 -21 8 -24 38 l-4 37 -1 -37 c-1 -21 -6 -38 -11 -38 -6 0
-12 17 -14 38 l-4 37 -1 -37 c-2 -31 -6 -38 -22 -38 -15 0 -20 7 -20 24 0 14
-4 28 -10 31 -6 4 -10 -7 -10 -24 0 -41 -18 -40 -23 2 l-4 32 -2 -35 c-2 -29
-4 -32 -11 -15 -7 17 -9 17 -9 3 -1 -20 -31 -25 -31 -5 0 8 -4 7 -10 -3 -7
-11 -10 -5 -11 25 l-1 40 -12 -40 -13 -40 -5 40 -5 40 -1 -37 c-1 -26 -7 -38
-17 -38 -8 0 -15 6 -15 13 0 8 -4 7 -10 -3 -7 -12 -10 -8 -11 15 0 17 -3 23
-6 15 -14 -43 -16 -44 -23 -15 l-8 30 -1 -27 c-1 -31 -27 -39 -34 -10 -4 16
-5 16 -6 0 -1 -25 -31 -23 -31 1 0 11 -4 23 -10 26 -6 4 -10 -5 -10 -19 0 -40
-18 -31 -23 12 l-4 37 -1 -37 c-2 -31 -6 -38 -22 -38 -11 0 -19 6 -17 13 1 6
-4 11 -11 9 -8 -1 -12 5 -11 15 3 24 -11 54 -21 48 -5 -3 -7 -14 -5 -24 2 -14
-2 -18 -18 -16 -12 1 -28 3 -34 4 -7 0 -13 6 -13 12 0 7 12 8 33 4 31 -6 31
-5 12 10 -17 13 -18 17 -5 25 8 5 19 6 25 2 5 -3 4 2 -4 11 -7 9 -18 14 -23
10 -6 -3 -8 0 -6 8 3 8 12 12 19 10 8 -2 23 -6 33 -9 14 -4 18 -1 13 10 -3 9
0 21 6 28 7 7 7 10 2 7 -13 -7 -25 1 -45 28 -8 11 -8 15 -2 9 15 -13 65 -6 56
7 -3 5 -14 9 -25 9 -10 0 -19 5 -19 11 0 6 9 8 22 3 21 -6 21 -6 5 10 -22 22
-21 27 1 21 9 -3 4 1 -13 9 -16 8 -34 12 -39 8 -5 -3 -6 0 -2 6 4 7 1 12 -8
12 -8 0 -18 -5 -22 -12 -5 -7 -3 -8 6 -3 9 5 11 4 6 -3 -11 -18 -23 -14 -29 8
-3 11 -1 20 4 20 5 0 1 8 -9 18 -15 16 -18 16 -24 2 -4 -9 -7 2 -7 24 -1 43
-16 40 -24 -4 -3 -21 -5 -19 -7 10 l-3 35 -7 -40 -7 -40 -3 45 c-2 40 -3 42
-9 15 -7 -34 -37 -46 -44 -18 -4 17 -5 17 -6 1 -2 -26 -21 -22 -22 5 -1 20 -2
20 -13 -6 -14 -31 -25 -26 -27 12 -1 25 -2 24 -8 -4 -6 -28 -8 -29 -18 -10
-16 30 -25 78 -14 71 16 -11 22 11 6 24 -16 13 -21 35 -7 26 5 -3 9 1 9 9 0 8
-4 15 -8 15 -12 0 -20 -32 -10 -44 7 -8 4 -12 -12 -13 -12 0 -16 1 -9 4 6 3
10 8 8 12 -3 4 -7 20 -10 35 -4 24 -2 26 17 20 12 -3 19 -3 15 1 -4 5 -2 15 5
24 10 14 10 14 -3 4 -16 -12 -71 -13 -63 0 2 4 -3 7 -12 7 -9 0 -14 4 -10 9 3
6 14 8 25 6 11 -2 22 0 25 6 4 5 -2 9 -13 9 -11 0 -24 11 -31 27 -10 21 -10
25 1 17 20 -15 41 -11 44 9 1 10 -2 14 -8 11 -18 -11 -78 -12 -85 -1 -3 6 -1
7 5 3 16 -10 15 14 -2 55 l-14 34 -4 -29 c-4 -37 -25 -45 -37 -14 -6 12 -11
17 -12 11 -1 -7 -2 -17 -3 -22 0 -5 -5 -13 -9 -18 -5 -4 -7 -2 -5 6 1 7 -3 16
-11 19 -10 3 -11 0 -5 -9 6 -11 5 -12 -8 -2 -8 7 -18 10 -21 6 -4 -3 -7 7 -8
23 0 25 -2 26 -9 9 l-8 -20 -8 20 c-8 19 -8 19 -15 -5 -6 -24 -6 -24 -16 10
l-9 35 -9 -35 -8 -35 -7 35 -7 35 -2 -32 c-1 -25 -5 -33 -20 -33 -11 0 -26 -3
-34 -6 -12 -4 -14 0 -11 18 l5 23 -11 -24 c-7 -17 -16 -22 -31 -18 -15 4 -19
2 -15 -9 4 -9 -1 -14 -15 -14 -13 0 -18 -4 -13 -12 4 -6 3 -8 -4 -4 -6 3 -13
3 -16 -2 -2 -4 12 -9 32 -10 20 -2 41 -7 46 -12 5 -5 1 -7 -10 -6 -11 2 -22
-2 -26 -7 -9 -15 -37 -17 -34 -4 2 7 1 9 -1 5 -3 -5 -9 -8 -14 -8 -6 0 -7 6
-3 13 5 8 2 8 -9 -2 -13 -10 -20 -11 -31 -2 -10 9 -16 9 -21 1 -4 -6 -4 -14
-1 -17 3 -4 6 0 6 7 0 9 6 8 20 -5 13 -12 20 -14 20 -5 0 8 4 9 13 3 16 -14
49 -13 66 1 11 8 13 8 8 -1 -4 -7 0 -17 10 -23 15 -9 15 -10 -6 -4 -17 4 -21
3 -16 -6 6 -9 4 -11 -6 -4 -18 11 -60 13 -53 2 3 -4 1 -8 -5 -8 -5 0 -13 5
-16 10 -4 7 -13 7 -26 0 -14 -8 -19 -7 -19 2 0 9 -3 10 -8 2 -4 -6 -15 -10
-24 -8 -10 1 -18 -1 -18 -5 0 -3 28 -8 62 -9 34 -1 64 -4 66 -7 3 -3 11 3 19
13 10 13 13 14 11 2 -2 -10 5 -15 20 -14 22 1 22 1 6 -17 -18 -20 -26 -24 -22
-11 4 9 -5 12 -33 12 -11 0 -18 -4 -15 -8 3 -5 -2 -9 -10 -9 -8 0 -13 6 -10
13 3 8 0 11 -9 8 -19 -8 -7 -34 16 -35 10 -1 30 -1 43 -2 13 -1 32 5 43 13 10
8 15 10 11 6 -4 -5 -3 -15 3 -23 9 -10 5 -13 -22 -14 -19 -1 -41 -1 -49 0 -13
2 -13 1 0 -8 8 -6 13 -11 10 -12 -65 -11 -60 -16 12 -14 44 1 62 6 60 14 -1 7
2 10 8 6 8 -5 8 -11 -1 -21 -6 -7 -16 -11 -22 -7 -7 4 -8 0 -3 -12 6 -15 4
-16 -10 -5 -13 12 -17 11 -24 -1 -6 -8 -6 -15 0 -17 14 -5 2 -22 -16 -22 -11
0 -12 4 -4 19 14 27 13 27 -15 27 -14 0 -25 -4 -25 -9 0 -5 -6 -4 -14 2 -11 9
-15 9 -19 -1 -4 -10 -8 -10 -16 2 -10 13 -11 13 -11 0 0 -13 -1 -13 -10 0 -8
13 -10 12 -10 -3 0 -11 -4 -15 -12 -11 -7 4 -8 3 -4 -4 5 -9 13 -9 27 -2 14 8
19 7 19 -1 0 -8 4 -8 15 1 12 10 15 10 15 0 0 -9 3 -10 13 -1 8 6 17 8 20 4 4
-3 7 0 7 7 0 7 2 11 5 8 8 -8 -6 -39 -15 -33 -5 3 -11 1 -15 -4 -3 -6 -12 -8
-20 -4 -8 3 -15 0 -15 -5 0 -6 10 -9 22 -7 12 3 28 -1 35 -7 11 -9 12 -7 6 8
-5 15 -4 17 8 8 8 -6 31 -10 52 -10 20 1 37 -3 37 -7 0 -5 9 -6 19 -2 17 5 19
2 15 -24 -3 -17 0 -32 7 -37 8 -5 11 -1 7 13 -6 23 27 51 35 30 4 -9 6 -9 6 1
2 24 27 12 29 -15 3 -38 12 -42 12 -5 0 25 4 32 20 32 15 0 20 -7 21 -27 l1
-28 7 25 c7 24 8 24 15 -10 8 -34 9 -34 16 -10 7 23 8 23 9 3 1 -12 5 -24 10
-27 5 -4 7 2 5 12 -3 9 0 28 5 42 10 24 11 23 7 -7 -2 -18 0 -33 5 -33 5 0 9
10 10 23 1 22 1 22 8 -2 3 -13 14 -25 24 -27 15 -2 16 0 5 14 -10 12 -10 14 0
8 6 -4 12 -3 12 3 0 5 -6 12 -12 14 -8 3 -6 6 5 6 11 1 17 -6 17 -21 0 -13 5
-30 11 -38 8 -12 9 -10 4 7 -5 18 -3 22 9 17 8 -3 12 -12 9 -20 -4 -10 3 -14
23 -14 38 0 22 -13 -17 -14 -18 -1 -34 -7 -36 -13 -3 -8 7 -10 29 -8 18 3 27
2 21 -1 -18 -8 -16 -22 5 -27 9 -3 5 -4 -10 -4 -15 1 -25 4 -22 8 2 4 -14 9
-37 11 -22 2 -43 0 -45 -4 -3 -5 -2 -8 3 -7 4 1 21 1 37 0 20 -1 27 -5 22 -16
-3 -8 2 -19 12 -24 15 -9 14 -10 -6 -11 -14 0 -21 -4 -17 -11 4 -6 -3 -5 -14
3 -18 11 -23 11 -31 -2 -6 -10 -10 -11 -10 -2 0 6 -5 12 -11 12 -5 0 -7 -4 -4
-10 3 -5 1 -10 -4 -10 -6 0 -11 6 -11 13 0 8 -3 9 -8 1 -4 -6 -19 -10 -33 -10
-14 1 -26 -4 -26 -10 0 -9 7 -10 23 -4 12 5 25 6 28 3 12 -12 6 -24 -16 -32
-15 -5 0 -8 48 -9 78 -2 100 -5 110 -15 4 -3 -3 -5 -15 -2 -11 2 -21 -1 -21
-6 0 -6 -6 -7 -12 -2 -19 11 -39 13 -32 2 3 -5 1 -9 -5 -9 -5 0 -12 6 -14 13
-4 9 -6 8 -6 -2 -1 -10 -4 -11 -14 -3 -19 16 -39 1 -21 -16 9 -8 14 -9 14 -2
0 7 6 8 18 1 11 -6 24 -6 37 2 18 9 19 9 6 -7 -8 -9 -21 -16 -30 -15 -9 1 -23
1 -31 0 -13 -1 -13 -2 0 -11 11 -7 5 -10 -24 -10 -22 0 -36 3 -33 6 3 4 2 15
-4 25 -6 12 -6 19 0 19 5 0 11 -6 14 -12 3 -7 4 -3 4 9 -1 17 -5 20 -18 12
-12 -6 -15 -16 -12 -30 4 -15 3 -20 -5 -15 -7 4 -12 14 -12 22 0 8 -4 14 -9
14 -4 0 -6 -12 -4 -27 4 -22 2 -25 -6 -13 -6 8 -11 24 -12 35 0 12 -5 7 -11
-14 -7 -26 -12 -31 -19 -20 -7 11 -9 11 -9 0 0 -9 -10 -12 -35 -9 -19 2 -35 1
-35 -4 0 -4 -16 -6 -35 -4 -19 1 -35 -2 -35 -6 0 -5 -4 -6 -10 -3 -14 9 -54
16 -46 8 7 -8 26 -12 69 -17 16 -2 33 -8 39 -14 9 -9 -42 -8 -69 3 -7 2 -13 0
-13 -5 0 -5 -9 -7 -20 -5 -11 2 -22 1 -24 -3 -4 -7 17 -9 149 -13 79 -2 41
-18 -51 -20 -39 -1 -60 -5 -52 -10 10 -7 10 -9 -1 -9 -8 0 -11 -3 -8 -6 4 -4
13 -1 22 6 13 11 14 10 9 -4 -5 -12 -2 -15 10 -10 9 3 13 10 10 15 -3 5 0 9 5
9 14 0 14 -17 1 -25 -5 -3 -10 -11 -10 -17 0 -6 6 -6 15 2 9 7 18 10 22 6 3
-3 0 -6 -8 -6 -11 0 -11 -2 -1 -9 9 -5 3 -8 -18 -9 -17 0 -28 4 -25 9 4 5 3 9
-2 10 -4 0 -21 2 -38 4 -18 3 -25 1 -17 -4 8 -5 13 -12 12 -17 -1 -5 4 -10 12
-12 11 -3 11 -2 0 6 -11 7 -11 10 2 15 10 4 16 1 16 -8 0 -16 4 -17 58 -17 36
-1 35 -12 -1 -13 -14 0 -21 -5 -19 -15 3 -12 0 -12 -15 2 -12 10 -25 13 -38 8
-11 -4 -26 -3 -34 4 -12 9 -12 8 0 -12 8 -12 15 -18 17 -12 4 12 32 13 32 1 0
-5 11 -8 25 -8 29 -1 47 -13 28 -20 -20 -7 -15 -23 5 -17 14 5 14 4 2 -4 -9
-7 -18 -8 -26 -1 -7 6 -25 12 -41 15 -19 3 -23 1 -14 -5 8 -5 9 -11 3 -15 -6
-4 -15 2 -21 11 -9 16 -10 16 -8 -3 1 -22 12 -25 35 -11 7 5 12 3 12 -5 0 -9
2 -10 8 -1 5 8 12 8 26 -3 18 -12 17 -13 -11 -10 -16 2 -36 0 -44 -5 -11 -7
-9 -9 9 -9 23 0 30 -14 11 -25 -6 -4 -8 -13 -5 -21 3 -8 1 -14 -4 -14 -6 0
-10 12 -11 28 0 24 -1 25 -9 7 -5 -11 -9 -16 -9 -11 -1 6 -8 1 -16 -10 -14
-18 -14 -17 -15 13 0 22 5 33 17 36 10 3 2 5 -17 4 -34 -1 -35 -2 -33 -36 2
-29 1 -32 -6 -16 -8 17 -10 18 -10 3 -2 -35 -21 -17 -22 20 l-2 37 -7 -40 -7
-40 -2 38 c0 20 -5 37 -9 37 -4 0 -6 -16 -4 -35 3 -21 0 -35 -7 -35 -6 0 -8 8
-5 18 5 16 5 16 -6 0 -11 -18 -31 -25 -29 -10 3 20 -2 32 -12 26 -8 -4 -7 -9
2 -15 11 -6 11 -9 -1 -13 -8 -3 -24 -5 -35 -4 -39 2 -56 -2 -51 -11 3 -4 16
-6 30 -4 13 3 26 0 30 -5 4 -6 -2 -8 -14 -5 -11 3 -26 0 -33 -6 -8 -6 -17 -8
-21 -4 -10 11 -46 11 -46 0 0 -5 9 -7 20 -4 11 3 20 1 20 -3 0 -5 -15 -11 -32
-13 l-33 -4 33 -1 c21 -1 32 -7 32 -17 0 -9 -6 -12 -15 -9 -8 4 -15 2 -15 -4
0 -5 16 -9 35 -8 19 1 35 -2 35 -5 0 -4 10 -5 23 -3 18 4 19 3 4 -4 -10 -4
-45 -7 -77 -7 -32 0 -57 -2 -55 -6 3 -3 21 -6 42 -6 20 1 38 -4 40 -9 2 -7
-12 -11 -34 -10 -30 1 -38 -3 -41 -18 -4 -18 -3 -19 13 -3 9 10 20 15 24 13 4
-3 24 -6 44 -8 20 -1 33 -6 31 -10 -3 -4 0 -8 6 -8 6 0 8 -4 5 -10 -9 -15 -25
-12 -25 5 0 11 -11 15 -42 14 -43 -2 -43 -2 -9 -8 19 -3 37 -13 39 -21 5 -13
3 -13 -13 0 -10 8 -16 10 -12 4 4 -7 -5 -11 -24 -12 -17 0 -34 -4 -38 -7 -3
-4 5 -6 19 -5 55 5 105 0 91 -9 -7 -5 -29 -8 -47 -6 -57 4 -29 -11 33 -17 13
-1 23 -8 23 -15 0 -7 5 -13 12 -13 16 0 3 -11 -17 -14 -9 -1 -21 -9 -26 -17
-5 -8 -9 -9 -9 -4 0 6 5 16 12 23 9 9 9 12 1 12 -7 0 -15 -5 -18 -10 -4 -6
-12 -7 -18 -3 -9 5 -8 2 0 -8 10 -13 10 -16 0 -16 -7 0 -14 11 -15 24 -1 14 2
21 8 18 6 -3 10 -2 10 4 0 5 -8 9 -19 8 -10 0 -18 -6 -18 -12 0 -33 -5 -45
-20 -45 -15 0 -16 2 -3 10 13 8 13 10 -2 10 -9 0 -19 -6 -21 -12 -4 -10 -6
-10 -6 0 -1 6 -6 12 -12 12 -5 0 -7 -4 -4 -10 3 -6 -4 -10 -17 -11 -13 0 -17
-3 -10 -6 17 -7 15 -23 -2 -23 -8 0 -16 12 -18 28 l-4 27 -12 -27 c-10 -25
-15 -27 -79 -27 -118 -1 -212 -7 -219 -13 -3 -4 17 -5 45 -3 28 2 50 0 50 -3
-3 -19 2 -32 12 -32 8 0 8 4 0 14 -9 10 -8 15 4 20 8 3 15 0 15 -6 0 -6 6 -5
17 3 14 12 16 12 8 0 -6 -11 -4 -13 9 -8 10 4 15 3 11 -3 -3 -6 -15 -10 -26
-10 -23 0 -24 -8 -2 -32 15 -17 15 -18 -7 -18 -16 0 -20 4 -16 15 3 8 2 15 -3
15 -5 0 -11 -9 -14 -21 -4 -13 -10 -18 -18 -13 -8 5 -10 3 -4 -5 5 -8 11 -9
17 -3 14 14 50 2 44 -14 -3 -8 -1 -14 4 -14 5 0 11 8 13 18 4 13 5 11 6 -5 1
-28 -23 -31 -38 -5 -6 10 -11 12 -11 4 0 -7 -4 -10 -10 -7 -6 3 -7 -1 -3 -10
5 -13 7 -14 14 -3 7 10 9 10 9 1 0 -7 9 -13 20 -13 11 0 20 -6 20 -14 0 -9 13
-16 33 -19 l32 -4 -35 0 c-75 -2 -81 -3 -74 -15 5 -7 3 -8 -7 -2 -18 11 -29
12 -56 2 -15 -5 -23 -4 -23 3 0 8 -4 8 -13 0 -8 -6 -17 -7 -23 -1 -6 6 -15 5
-24 -1 -12 -8 -11 -9 5 -7 13 2 19 -2 17 -12 -3 -12 -1 -13 9 -2 15 14 33 17
25 3 -3 -4 5 -7 17 -6 12 0 30 -3 40 -7 11 -6 17 -5 17 3 0 9 3 9 14 0 11 -9
15 -9 19 1 3 7 6 8 6 2 1 -5 15 -9 31 -8 17 1 33 -2 36 -8 3 -5 -6 -8 -22 -6
-16 2 -29 -2 -32 -11 -3 -8 0 -11 7 -7 6 4 19 3 28 -2 13 -8 9 -10 -19 -10
-27 0 -35 4 -31 14 3 8 1 14 -5 14 -6 0 -9 -11 -8 -25 2 -16 -1 -22 -8 -17 -6
4 -25 7 -42 7 -23 1 -30 -3 -27 -13 3 -7 9 -10 12 -5 9 12 51 16 51 4 0 -6 11
-11 25 -11 35 0 22 -23 -20 -36 -19 -6 -37 -9 -40 -6 -10 10 -54 8 -52 -3 3
-18 21 -24 41 -13 19 10 20 10 7 -5 -10 -12 -10 -17 -1 -17 6 0 10 -6 8 -12
-3 -7 -9 -13 -14 -13 -5 0 -15 -4 -21 -8 -8 -5 -13 -3 -13 4 0 7 -3 10 -6 6
-11 -10 7 -28 19 -19 7 4 18 7 25 6 6 -1 27 -2 45 -3 27 -1 29 -3 14 -12 -9
-5 -22 -7 -29 -3 -6 4 -8 3 -5 -3 4 -6 0 -14 -9 -17 -11 -4 -15 -2 -11 7 3 8
-1 14 -9 14 -7 0 -11 -4 -8 -9 4 -5 -3 -19 -13 -31 -11 -12 -18 -28 -17 -34 1
-7 2 -17 3 -23 0 -5 15 -10 31 -10 32 0 36 -6 20 -30 -6 -10 -10 -11 -10 -2 0
6 -11 12 -25 12 -14 0 -25 -4 -25 -10 0 -5 7 -7 16 -3 11 4 23 -3 35 -18 12
-15 17 -18 13 -6 -5 13 -2 16 10 11 9 -3 13 -10 10 -15 -3 -5 -2 -8 3 -7 12 4
15 -5 8 -24 -4 -10 -13 -14 -23 -11 -11 5 -14 2 -9 -10 3 -8 1 -18 -6 -20 -7
-2 -4 -3 5 -2 10 2 21 -1 24 -6 3 -5 -5 -10 -18 -10 -18 -1 -19 -2 -4 -6 29
-8 44 14 21 31 -18 13 -14 14 34 10 30 -2 57 -7 60 -10 3 -3 -7 -5 -24 -4 -45
3 -45 3 -30 -34 13 -31 13 -34 -4 -39 -11 -2 -24 0 -29 5 -6 6 -12 5 -17 -3
-5 -8 -4 -10 3 -5 7 4 12 3 12 -2 0 -5 -9 -12 -19 -15 -14 -3 -18 -1 -14 9 3
10 -2 14 -18 13 -18 -1 -20 -2 -6 -6 14 -4 16 -8 6 -19 -6 -8 -19 -14 -28 -14
-14 0 -14 2 -1 10 20 13 4 13 -19 0 -23 -12 -34 -37 -19 -46 6 -4 8 -3 5 2 -9
15 9 38 22 29 9 -5 9 -11 -1 -23 -9 -11 -5 -10 14 3 15 11 28 25 28 30 0 6 5
3 10 -5 13 -20 13 -33 0 -25 -6 3 -10 2 -10 -4 0 -5 12 -9 28 -9 57 1 83 -2
78 -11 -3 -4 -18 -6 -33 -3 -25 5 -27 4 -14 -11 7 -10 20 -17 27 -17 8 0 14
-4 14 -10 0 -5 -6 -7 -14 -4 -10 4 -13 0 -11 -13 2 -10 4 -22 4 -27 1 -5 8 -3
16 4 9 7 18 10 21 8 3 -3 -9 -12 -25 -19 -34 -15 -46 -35 -29 -45 7 -5 8 -2 3
6 -6 9 -4 11 5 5 9 -5 11 -4 6 3 -4 7 -2 12 3 12 6 0 11 -4 11 -9 0 -5 6 -11
13 -14 6 -2 4 -3 -6 -1 -9 1 -23 -6 -30 -16 -13 -18 -39 -21 -53 -7 -11 11
-26 8 -19 -3 3 -5 -1 -10 -10 -10 -9 0 -14 4 -11 9 8 12 -21 8 -34 -5 -5 -5
24 -10 78 -11 68 -2 90 -7 99 -20 7 -9 13 -12 13 -5 0 6 6 9 13 6 9 -3 12 -16
9 -34 -3 -18 0 -30 7 -30 6 0 11 11 11 24 0 32 20 45 21 14 1 -13 1 -27 0 -31
-1 -5 3 -6 8 -3 5 4 12 -2 14 -11 3 -10 5 -1 6 20 1 26 6 37 16 37 8 0 15 -8
15 -17 0 -10 7 -27 15 -37 14 -19 15 -18 15 17 0 48 27 52 33 5 l4 -33 1 33
c2 39 17 42 27 5 l8 -28 12 30 13 30 11 -25 c9 -22 10 -23 10 -4 1 28 11 36
28 23 8 -7 13 -8 13 -1 0 5 9 8 20 5 15 -4 19 -2 14 10 -3 8 0 18 7 23 7 4 10
3 5 -4 -3 -6 -3 -13 2 -16 4 -2 8 4 9 14 1 10 -7 20 -18 23 -10 3 -17 1 -14
-3 3 -5 0 -12 -7 -16 -7 -4 -10 -4 -6 1 4 4 2 15 -5 23 -10 13 -8 14 16 10 27
-5 38 6 15 15 -10 4 -10 7 -1 17 10 11 14 9 22 -11 5 -13 10 -18 10 -11 1 6 6
12 12 12 5 0 7 -5 3 -12 -4 -7 -3 -8 5 -4 14 9 5 26 -13 26 -8 0 -19 6 -25 14
-18 21 5 31 25 11 9 -9 19 -14 22 -11 6 7 -50 61 -60 58 -5 -1 -8 3 -8 9 0 5
-6 7 -12 3 -10 -6 -10 -5 -1 8 7 8 9 19 5 23 -4 5 1 5 10 2 24 -9 39 14 24 35
-7 10 -16 15 -19 11 -12 -11 -7 -23 9 -23 8 0 12 -5 9 -10 -5 -8 -12 -7 -22 2
-9 7 -18 12 -20 10 -13 -10 -11 7 1 17 8 7 12 19 9 27 -3 8 0 14 6 14 6 0 11
-6 11 -12 0 -9 3 -9 9 1 5 8 7 20 4 27 -2 6 0 15 6 19 6 3 11 1 11 -5 0 -6 5
-8 11 -4 8 5 6 10 -5 16 -9 5 -20 7 -25 3 -5 -3 -13 0 -17 6 -4 7 -3 9 4 5 6
-3 14 -1 18 5 3 6 9 7 13 3 3 -5 17 -15 31 -23 14 -7 22 -10 18 -6 -4 5 -2 15
5 24 10 14 10 14 -5 3 -14 -11 -19 -10 -36 9 -11 11 -25 18 -30 15 -5 -3 -16
2 -23 11 -12 14 -12 16 1 8 25 -15 48 -12 53 6 6 24 -13 48 -42 54 -14 2 -29
10 -35 16 -8 9 -8 10 1 5 6 -3 16 1 21 10 9 15 10 15 16 -4 4 -12 12 -22 17
-22 14 0 11 28 -3 33 -7 3 -4 6 7 7 20 1 20 1 1 15 -11 8 -16 15 -11 15 5 0 0
6 -10 14 -11 8 -23 12 -27 10 -4 -2 -9 0 -13 5 -3 6 4 8 16 6 15 -3 19 0 15
10 -10 26 3 16 19 -14 9 -19 22 -29 34 -28 11 0 18 5 15 9 -3 4 -12 4 -22 1
-14 -5 -15 -3 -4 8 6 7 12 18 12 24 0 5 -5 3 -10 -5 -9 -13 -11 -13 -20 0 -13
20 -12 30 3 31 6 0 1 5 -13 11 -25 11 -25 11 -2 15 22 4 32 23 11 23 -8 0 -9
4 0 13 6 8 8 17 4 20 -3 4 -1 7 5 7 6 0 9 -15 8 -35 -2 -23 1 -34 8 -32 6 2
10 18 8 36 -1 17 3 31 9 31 5 0 8 -4 5 -8 -3 -5 -1 -22 4 -38 8 -28 8 -28 10
11 l3 40 7 -35 7 -35 2 35 c2 19 5 29 8 23 2 -7 11 -13 19 -13 9 0 13 4 10 8
-2 4 6 9 20 10 16 1 24 -3 24 -14 0 -14 -2 -15 -17 -3 -16 12 -16 12 -6 -1 6
-8 11 -19 11 -25 0 -5 5 -11 11 -13 10 -3 15 11 12 31 0 4 3 7 8 7 13 0 20
-49 7 -53 -6 -2 4 -4 22 -4 20 0 32 5 32 14 0 7 0 16 1 20 0 4 -5 9 -11 11 -8
3 -10 -3 -5 -17 5 -16 3 -20 -9 -15 -25 10 -15 40 15 42 26 2 27 0 24 -30 -4
-30 -3 -31 8 -13 12 21 38 28 36 10 0 -5 -7 -9 -15 -7 -8 2 -14 -2 -14 -8 0
-5 10 -10 23 -11 l22 0 -23 -10 c-13 -5 -28 -7 -33 -3 -5 3 -9 0 -9 -6 0 -6
-5 -8 -13 -3 -20 12 -37 12 -37 -1 0 -8 23 -13 67 -14 37 -1 69 -5 72 -7 4 -5
-68 -9 -117 -7 -12 1 -22 -3 -22 -9 0 -6 5 -7 10 -4 16 10 11 -7 -6 -19 -13
-10 -13 -12 5 -12 11 0 18 2 16 5 -6 5 26 30 39 31 5 0 1 -9 -9 -20 -17 -19
-17 -20 -1 -20 9 0 14 5 11 10 -3 5 -1 10 4 10 6 0 11 -4 11 -9 0 -5 8 -12 18
-14 9 -3 -5 -5 -32 -6 -58 -1 -58 -7 2 -14 23 -2 46 -8 50 -12 4 -5 -1 -5 -10
-2 -10 3 -20 2 -24 -4 -4 -6 -12 -5 -22 3 -9 7 -13 8 -9 2 4 -7 -11 -11 -45
-13 -62 -2 -79 -11 -21 -11 28 0 43 -5 47 -15 3 -9 11 -15 18 -14 7 1 27 1 43
0 21 -1 26 -4 17 -10 -17 -10 -17 -21 -2 -31 9 -5 9 -9 1 -14 -6 -4 -11 -2
-11 4 0 7 -6 8 -19 1 -10 -6 -21 -8 -24 -4 -4 3 -13 1 -20 -5 -8 -7 -16 -9
-19 -7 -3 3 -16 8 -28 10 -12 2 -20 1 -16 -2 4 -4 14 -8 24 -9 9 -2 18 -8 20
-13 2 -7 10 -5 19 4 12 12 18 13 29 4 11 -9 14 -9 14 1 0 10 3 10 15 0 18 -15
16 -19 -14 -25 -12 -2 -19 0 -16 6 4 5 -1 9 -10 9 -9 0 -14 -4 -11 -9 7 -11
-13 -9 -33 3 -9 6 -12 5 -7 -2 3 -5 0 -13 -6 -15 -7 -3 13 -6 45 -6 33 -1 57
-5 57 -12 0 -5 -5 -7 -12 -3 -8 5 -9 1 -4 -12 6 -15 5 -17 -5 -6 -15 14 -33
16 -24 2 3 -6 1 -10 -4 -10 -6 0 -11 4 -11 8 0 4 -20 8 -45 9 -36 1 -42 -1
-32 -12 9 -9 14 -10 19 -1 6 8 8 8 8 -1 0 -7 7 -13 15 -13 8 0 15 6 15 13 0 9
2 9 8 1 4 -7 18 -14 32 -17 16 -3 9 -5 -20 -6 -25 -2 -39 -5 -32 -8 24 -9 12
-19 -18 -15 -22 3 -30 1 -28 -9 2 -8 -3 -13 -12 -11 -8 2 -11 0 -7 -4 11 -11
38 -14 31 -3 -9 15 26 23 39 9 10 -10 8 -12 -5 -7 -10 4 -18 3 -18 -2 0 -5 23
-9 52 -10 28 0 53 -3 56 -6 5 -5 -59 -7 -163 -7 l-40 0 42 -7 c23 -4 56 -6 73
-5 17 1 30 -3 30 -9 0 -8 3 -8 8 -2 11 15 34 17 30 3 -3 -9 -26 -13 -71 -13
-70 0 -78 -4 -50 -26 9 -8 14 -9 10 -3 -5 8 7 11 38 11 25 -1 45 -6 45 -12 0
-5 5 -3 10 5 6 9 10 10 10 3 0 -18 -19 -26 -35 -13 -8 7 -15 7 -19 1 -4 -6
-12 -8 -19 -5 -8 3 -13 -4 -14 -18 0 -13 1 -17 4 -10 3 6 9 12 14 12 6 0 7 -4
4 -10 -3 -5 -2 -10 3 -10 6 0 13 8 16 17 4 10 10 13 14 8 13 -18 31 -15 37 5
7 22 20 26 31 8 4 -6 3 -8 -4 -4 -13 8 -26 -10 -17 -24 5 -8 12 -7 23 2 15 10
15 10 4 -2 -7 -8 -23 -15 -35 -15 -13 0 -23 -7 -25 -19 -3 -11 0 -16 7 -12 7
5 9 1 5 -8 -5 -12 1 -16 22 -16 16 0 24 -4 18 -8 -9 -5 -8 -10 1 -19 11 -10
15 -8 18 10 4 20 4 20 6 -3 1 -20 3 -22 11 -10 8 12 10 11 10 -7 0 -30 18 -39
22 -11 4 30 25 34 31 6 l4 -23 2 23 c2 35 29 27 34 -10 l4 -33 1 33 c2 24 7
32 21 32 14 0 19 -6 16 -18 -2 -10 1 -25 6 -33 7 -12 9 -12 9 1 1 11 4 10 15
-4 20 -27 44 -30 38 -5 -3 11 0 19 6 19 7 0 9 -4 6 -10 -3 -5 3 -10 14 -10 10
0 22 -6 24 -12 4 -10 6 -10 6 0 1 6 9 12 19 12 14 0 15 -2 2 -10 -12 -8 -9
-10 12 -10 25 0 27 -2 18 -24 -5 -13 -6 -27 -2 -32 4 -4 2 -4 -4 -1 -7 4 -14
-2 -17 -12 -4 -15 -13 -18 -42 -16 -20 1 -41 8 -46 16 -5 8 -9 10 -9 4 0 -27
22 -37 83 -38 20 0 37 -4 37 -9 0 -7 -12 -9 -82 -11 -15 -1 -25 -4 -22 -9 2
-4 18 -5 34 -3 16 2 32 0 34 -3 2 -4 -12 -8 -32 -9 -25 -2 -42 3 -51 15 -12
16 -13 16 -8 0 3 -9 1 -19 -6 -22 -7 -3 -6 -5 3 -5 43 3 90 -2 90 -9 0 -4 -33
-8 -73 -7 -45 0 -74 -4 -74 -11 0 -6 25 -10 64 -9 60 2 62 1 47 -16 -9 -10
-22 -16 -28 -12 -6 4 -6 0 1 -9 7 -8 11 -17 8 -19 -2 -3 5 -5 15 -6 11 -1 20
2 20 8 0 5 3 8 8 6 4 -1 8 3 10 8 1 6 -2 11 -8 11 -24 3 -24 6 -1 15 17 7 28
6 35 -2 8 -9 7 -10 -3 -4 -9 5 -12 3 -9 -6 3 -8 1 -22 -4 -31 -7 -14 -5 -16 8
-11 13 5 15 3 9 -8 -7 -11 -6 -12 6 -2 12 10 18 10 29 0 10 -9 11 -9 6 1 -4 6
-2 12 4 12 6 0 9 4 6 8 -3 5 1 9 9 9 11 0 12 -4 4 -14 -8 -9 -8 -13 -1 -13 6
0 13 -8 15 -17 2 -10 3 -8 2 5 -2 17 2 22 12 18 8 -3 19 -6 24 -6 5 0 9 -8 10
-17 0 -15 2 -15 9 2 7 17 9 14 10 -15 2 -35 2 -35 9 -6 7 34 27 45 34 19 4
-17 5 -17 6 0 0 9 6 17 11 17 10 0 14 -20 10 -54 -1 -11 3 -15 9 -12 6 4 11
20 11 37 0 27 2 29 40 27 39 -1 40 -2 41 -37 l2 -36 6 40 c6 42 14 39 25 -7 8
-37 33 -37 34 0 0 43 3 49 12 22 8 -24 8 -24 9 -2 1 15 7 22 21 22 16 0 20 -7
21 -32 l2 -33 7 35 7 35 3 -35 2 -35 7 30 c4 21 13 31 28 33 18 3 21 -1 19
-23 -2 -14 1 -28 6 -31 4 -3 8 -2 7 3 -1 4 -1 18 0 31 1 26 21 30 22 5 0 -15
2 -15 9 2 6 17 8 14 12 -15 l5 -35 1 33 c2 39 17 43 20 5 3 -35 12 -43 12 -10
0 31 17 45 23 20 4 -17 5 -17 6 0 1 20 17 23 24 5 3 -8 6 -5 6 5 1 10 5 16 11
12 5 -3 6 -13 3 -22 -5 -13 -1 -11 17 5 13 12 30 20 36 18 6 -2 17 1 23 7 8 8
11 8 11 -2 0 -7 5 -9 10 -6 6 4 5 12 -4 21 -16 16 -30 19 -21 5 8 -14 -7 -20
-30 -10 -17 6 -17 8 -2 8 10 1 17 9 17 22 0 15 -5 19 -17 15 -25 -8 -44 6 -33
24 8 12 10 12 15 -1 3 -9 14 -15 23 -14 18 1 22 7 22 28 0 9 -3 8 -9 -2 -6
-10 -10 -10 -16 -1 -4 6 -3 16 3 22 6 6 8 16 5 23 -3 10 2 12 16 8 16 -4 21
-1 21 13 0 11 -4 15 -8 9 -4 -5 -14 -10 -22 -10 -8 0 -14 -8 -14 -17 1 -9 -4
-14 -11 -12 -7 3 -10 15 -7 30 2 14 0 24 -7 24 -7 0 -9 -5 -5 -12 5 -7 3 -8
-5 -3 -23 14 5 28 29 15 20 -11 22 -10 17 5 -4 9 -7 19 -7 21 0 3 -4 3 -9 -1
-5 -3 -13 0 -17 6 -4 7 -3 9 4 5 6 -3 13 -2 17 4 3 5 2 10 -4 10 -6 0 -8 7 -5
15 4 8 10 13 14 10 11 -7 20 19 13 43 -2 11 0 23 5 26 12 7 4 46 -10 46 -5 0
-6 -5 -3 -10 9 -14 -4 -70 -16 -70 -6 0 -8 4 -5 9 10 16 -22 33 -53 28 -28 -5
-31 -3 -32 21 l-1 27 -7 -24 c-7 -25 -31 -42 -31 -22 0 6 -7 11 -16 11 -9 0
-12 -5 -8 -12 4 -7 3 -8 -4 -4 -7 4 -12 18 -12 32 0 13 -5 24 -10 24 -6 0 -10
-8 -8 -17 2 -13 -6 -18 -34 -20 -26 -2 -38 1 -38 9 0 9 -3 8 -10 -2 -8 -12
-10 -10 -11 10 -1 14 -1 28 0 33 0 4 -4 7 -10 7 -6 0 -9 -7 -5 -15 3 -9 0 -15
-9 -15 -8 0 -15 -7 -15 -15 0 -11 -12 -15 -49 -15 -44 0 -49 2 -44 20 3 12 0
20 -6 20 -7 0 -10 -4 -7 -8 2 -4 1 -14 -5 -22 -6 -11 -9 -7 -10 15 l-1 30 -8
-30 -8 -30 -2 35 c-3 32 -3 33 -7 7 -5 -32 -31 -47 -44 -26 -6 10 -9 10 -9 2
0 -8 -13 -13 -30 -13 -24 0 -30 4 -31 23 -1 21 -1 21 -8 -3 -5 -17 -9 -21 -15
-12 -4 7 -16 10 -27 7 -17 -6 -19 -2 -16 29 4 30 2 34 -9 25 -8 -6 -14 -20
-14 -31 0 -12 -4 -17 -12 -12 -7 5 -9 2 -5 -9 3 -8 0 -18 -7 -20 -10 -4 -12 1
-8 15 3 13 1 19 -5 15 -5 -3 -10 0 -10 7 0 8 9 12 21 10 12 -3 15 -1 8 2 -10
5 -9 9 5 20 17 12 17 13 1 14 -18 0 -20 32 -3 47 4 5 5 2 1 -5 -6 -10 -2 -13
15 -10 16 2 23 -2 21 -10 -1 -8 2 -11 7 -7 15 9 1 37 -16 31 -7 -3 -16 1 -19
9 -4 8 -11 12 -17 8 -6 -4 -7 -1 -2 6 4 8 20 11 37 9 16 -3 32 0 35 5 3 6 1 7
-5 3 -6 -3 -13 -2 -16 3 -3 5 -15 7 -26 4 -11 -3 -20 0 -20 6 0 10 12 15 31
13 3 -1 6 5 6 12 0 7 -6 13 -13 13 -7 0 -11 -4 -8 -9 3 -4 -2 -8 -11 -8 -11 0
-15 5 -12 14 3 7 0 19 -6 26 -9 10 -8 12 5 7 13 -5 18 -1 18 16 -1 38 6 67 17
78 7 7 10 3 10 -13 1 -55 3 -64 12 -48 6 8 7 18 5 22 -3 5 -2 17 1 29 10 32
49 21 56 -16 l6 -30 2 33 c1 21 6 32 16 32 8 0 15 -6 15 -12 0 -9 3 -8 10 2
11 19 19 10 22 -23 3 -37 18 -34 18 3 0 32 29 44 31 13 0 -15 2 -15 7 -3 4 8
15 16 25 18 13 2 17 -5 18 -35 l2 -38 6 40 c6 42 14 39 25 -7 10 -43 36 -36
37 10 1 33 2 34 9 12 8 -24 8 -24 9 -2 1 15 7 22 21 22 11 0 20 -6 20 -12 0
-9 4 -8 10 2 8 13 10 12 10 -4 0 -20 0 -20 15 0 11 14 14 15 15 4 0 -13 1 -13
10 0 8 12 10 9 10 -12 0 -16 4 -28 10 -28 5 0 9 10 7 21 -1 12 4 24 11 26 6 3
12 -3 13 -14 0 -14 2 -15 7 -3 12 27 31 21 41 -13 9 -31 9 -31 10 -5 1 32 18
46 24 21 4 -17 5 -17 6 0 1 19 21 24 21 5 0 -9 4 -8 10 2 7 11 10 7 11 -20 2
-33 2 -33 6 -6 4 22 7 26 14 15 7 -11 9 -10 9 6 0 17 2 17 10 5 6 -10 10 -11
10 -2 0 6 5 12 10 12 6 0 11 -17 11 -37 l2 -38 7 40 c7 39 7 39 9 8 0 -18 5
-33 10 -33 6 0 8 9 6 20 -4 20 8 33 37 37 12 2 15 -2 12 -12 -4 -8 -1 -15 5
-15 6 0 11 7 11 15 0 8 7 15 15 15 8 0 15 -5 15 -11 0 -5 4 -8 9 -4 5 3 12 -3
14 -12 4 -15 5 -15 6 2 1 16 9 21 43 23 26 2 44 -2 50 -10 6 -10 8 -10 8 0 0
18 18 15 23 -5 4 -17 5 -17 6 0 1 11 9 17 25 17 20 0 24 -5 22 -28 -2 -26 0
-27 21 -18 15 7 22 17 19 29 -2 9 0 17 4 17 5 0 11 -12 13 -27 l4 -28 2 28 c1
27 3 28 44 25 38 -3 42 -6 45 -31 4 -33 22 -26 22 8 0 23 2 24 88 22 48 0 90
-6 94 -12 5 -6 8 -6 8 3 0 6 7 12 15 12 8 0 15 -7 15 -16 0 -8 5 -12 10 -9 6
4 8 11 5 16 -4 5 -2 9 4 9 5 0 12 -6 14 -12 4 -10 6 -10 6 0 1 6 9 12 20 12
14 0 17 -6 14 -24 -3 -13 -1 -26 5 -30 5 -3 7 5 5 18 -3 13 0 27 6 30 6 4 11
1 11 -7 0 -8 6 -17 14 -20 9 -4 12 0 9 13 -4 15 2 18 45 16 44 -1 48 -3 44
-21 -5 -18 -3 -18 11 -6 9 7 14 18 10 24 -3 6 -1 7 6 3 6 -4 9 -12 6 -17 -6
-8 8 -12 48 -12 9 0 17 -4 17 -9 0 -6 -7 -8 -15 -4 -8 3 -15 0 -15 -7 0 -9 -2
-9 -8 0 -4 7 -18 11 -30 10 -24 -1 -29 -12 -9 -20 7 -3 5 -6 -5 -6 -10 -1 -18
4 -18 9 0 6 -5 10 -11 10 -5 0 -7 -4 -4 -10 6 -10 -19 -14 -65 -10 -14 1 -22
-1 -18 -5 3 -3 36 -7 72 -9 60 -2 66 0 67 19 0 20 0 20 8 0 5 -11 4 -22 0 -23
-5 -2 -6 -9 -3 -15 5 -8 2 -8 -7 0 -21 20 -28 15 -23 -14 3 -21 2 -24 -6 -13
-7 11 -10 11 -10 2 0 -8 -5 -10 -12 -6 -20 13 -47 12 -52 -1 -2 -7 1 -12 7
-12 7 0 35 -1 62 -3 l50 -3 -60 -7 c-60 -7 -60 -7 -15 -10 25 -1 55 -3 68 -3
27 -1 30 -17 2 -17 -13 0 -18 -5 -14 -15 4 -9 0 -15 -7 -15 -11 0 -11 -3 1
-11 13 -9 12 -10 -2 -5 -10 3 -20 1 -23 -4 -8 -12 17 -19 36 -9 13 6 18 3 22
-12 3 -12 3 -18 0 -15 -4 3 -12 1 -20 -5 -7 -6 -13 -8 -13 -5 0 4 -10 2 -21
-5 -12 -6 -19 -7 -16 -2 4 7 -51 9 -123 3 -23 -1 -23 -2 -5 -9 11 -5 22 -6 25
-2 8 10 30 12 30 2 0 -5 -12 -14 -27 -20 l-28 -11 27 5 c15 3 29 1 32 -3 3 -5
26 -7 51 -5 31 2 44 0 40 -7 -4 -6 -2 -17 5 -25 8 -10 8 -15 -1 -21 -7 -4 -9
-3 -5 4 7 11 -9 25 -34 29 -48 9 -70 9 -70 0 0 -5 -6 -4 -14 2 -10 8 -16 9
-21 1 -3 -6 -10 -8 -14 -6 -4 3 -40 6 -79 8 -42 1 -72 6 -72 13 0 5 -5 3 -10
-5 -9 -13 -11 -13 -20 0 -6 10 -10 11 -10 3 0 -20 -20 -15 -20 5 -1 16 -1 16
-11 0 -12 -21 -45 -24 -53 -5 -5 10 -7 10 -12 0 -3 -7 -15 -13 -25 -13 -14 0
-18 4 -13 13 6 9 5 9 -7 0 -8 -7 -25 -11 -37 -10 -17 1 -22 8 -23 32 l-2 30
-6 -30 c-6 -32 -17 -37 -86 -39 -42 -1 -62 -12 -62 -33 0 -18 16 -16 23 2 4 8
11 15 17 15 6 0 7 -3 4 -6 -3 -4 -2 -15 4 -26 14 -26 -7 -51 -38 -45 -14 3
-23 -1 -23 -9 0 -15 39 -15 58 -1 9 7 11 6 6 -7 -3 -9 -10 -16 -16 -16 -5 0
-6 -5 -2 -12 5 -7 3 -8 -5 -3 -20 12 -81 15 -81 4 0 -6 5 -7 10 -4 6 3 10 0
10 -7 0 -9 3 -9 10 2 9 13 10 13 10 0 0 -12 2 -12 9 -1 6 9 11 10 15 2 4 -6 4
-11 -1 -12 -67 -7 -81 -6 -76 10 4 13 3 13 -5 2 -5 -7 -23 -14 -40 -14 -17 -1
-28 -5 -26 -8 2 -4 15 -6 27 -5 13 2 47 0 76 -4 38 -5 54 -3 59 6 6 10 10 9
19 -6 11 -17 9 -19 -17 -18 -17 1 -38 -6 -48 -14 -9 -9 -25 -14 -34 -13 -10 2
-20 -1 -23 -5 -3 -5 -11 -8 -18 -6 -7 1 -9 1 -4 -1 4 -3 4 -10 0 -16 -4 -8 -1
-7 9 1 13 10 17 10 21 0 4 -10 7 -11 18 0 20 18 31 15 18 -6 -9 -14 -23 -18
-56 -17 -24 0 -46 -2 -48 -5 -2 -4 19 -6 48 -5 36 1 56 -4 65 -15 11 -13 11
-13 7 1 -5 13 2 15 42 12 26 -3 50 -7 53 -10 3 -3 -12 -3 -32 -2 -20 2 -41 -1
-45 -6 -4 -6 -4 -7 1 -3 11 9 48 -10 41 -21 -2 -5 10 -9 28 -9 17 0 34 -1 37
-2 22 -7 50 -11 79 -10 19 0 42 -7 54 -17 19 -17 20 -17 14 0 -4 11 -1 17 8
17 8 0 15 -6 15 -12 0 -10 2 -10 8 0 6 9 35 12 100 10 50 -1 89 -5 86 -10 -3
-4 0 -8 5 -8 6 0 11 4 11 9 0 12 41 11 57 -1 7 -5 14 -5 18 2 5 8 11 7 23 -2
13 -11 14 -11 8 0 -6 11 4 13 50 12 85 -2 92 -2 75 9 -9 6 -5 9 14 9 19 0 23
-3 14 -9 -11 -7 -10 -9 4 -9 9 0 17 6 17 13 0 8 4 7 10 -3 5 -8 10 -10 10 -4
0 6 10 15 22 21 22 10 5 12 -90 13 -13 0 -21 4 -17 9 3 6 14 8 25 6 12 -2 18
0 15 6 -4 5 -1 9 6 9 8 0 9 3 0 13 -6 8 -8 17 -4 20 3 4 -8 7 -26 7 -44 0 -36
22 12 34 45 11 50 35 7 34 -16 -1 -27 -5 -24 -9 8 -14 -51 2 -66 18 -14 14
-13 14 9 2 16 -10 25 -11 28 -3 2 6 15 9 28 6 14 -2 25 0 25 4 0 14 -54 14
-63 1 -6 -8 -7 -7 -4 3 2 10 19 16 48 18 24 2 40 0 37 -4 -4 -4 0 -13 10 -20
24 -19 37 -17 17 2 -14 15 -14 17 2 29 17 12 16 14 -10 26 -28 12 -35 33 -17
44 6 4 8 22 5 43 -6 37 -6 37 9 12 11 -18 15 -20 16 -9 0 9 7 20 16 23 8 3 12
2 9 -4 -8 -13 35 -15 267 -9 59 1 106 5 103 7 -3 3 -37 7 -77 9 -40 2 -74 6
-77 8 -2 3 2 11 8 19 8 10 9 16 1 21 -5 3 -13 -1 -16 -9 -5 -13 -8 -13 -19 -2
-8 7 -25 11 -38 9 -14 -3 -27 -1 -30 4 -7 11 113 11 131 0 7 -5 14 -2 18 7 7
18 59 22 67 6 3 -6 4 -5 3 2 -1 7 -19 14 -39 16 -26 2 -34 7 -31 17 4 10 -1
12 -18 8 -18 -4 -20 -3 -8 6 12 9 10 11 -12 11 -16 0 -28 4 -28 9 0 4 11 7 25
6 14 -2 27 1 30 5 11 18 32 -1 27 -26 -2 -13 0 -24 5 -24 7 0 8 17 4 63 -1 5
-5 6 -10 2 -5 -3 -12 -1 -16 5 -4 6 -11 8 -16 4 -5 -3 -8 0 -7 8 2 9 -8 13
-29 12 -34 -1 -36 10 -2 12 10 1 21 2 23 3 2 0 0 17 -4 36 -4 19 -4 33 0 30 5
-3 10 1 13 7 4 10 7 10 18 0 12 -11 12 -13 0 -10 -8 2 -17 -5 -19 -14 -2 -10
2 -18 8 -18 6 0 8 5 4 11 -4 7 -1 10 7 7 8 -3 13 -11 11 -17 -1 -6 3 -11 9
-11 6 0 9 7 6 15 -7 15 40 58 53 50 5 -3 11 -1 15 4 3 6 -7 10 -22 11 -71 0
-93 3 -93 10 0 4 27 6 61 5 33 0 62 2 64 5 3 6 -20 9 -72 11 -13 1 -23 5 -23
10 0 6 -7 6 -18 0 -14 -7 -18 -6 -18 9 0 13 4 16 12 10 6 -6 14 -6 18 -2 4 4
12 8 17 8 22 3 23 5 9 14 -9 6 -20 5 -29 -3 -12 -10 -13 -9 -6 2 6 11 4 13 -7
9 -8 -4 -15 0 -15 7 0 10 5 11 19 4 14 -7 18 -6 18 6 0 10 -5 13 -12 9 -6 -4
-8 -3 -5 4 4 5 16 8 27 5 11 -3 20 0 20 6 0 11 -26 14 -102 14 -21 0 -38 3
-38 7 0 4 29 6 65 6 36 -1 65 2 65 7 0 6 5 6 13 0 16 -12 39 -11 44 4 3 7 -5
10 -21 9 -30 -4 -33 2 -8 20 16 12 16 12 -3 11 -15 -2 -19 5 -21 31 0 17 3 32
7 32 5 0 9 -5 9 -12 0 -6 3 -9 6 -5 3 3 2 12 -2 19 -14 21 -13 36 2 42 8 3 11
12 8 21 -8 19 18 17 26 -2 3 -7 10 -2 17 12 8 19 8 23 0 18 -20 -12 -37 -12
-37 0 0 7 -5 4 -11 -6 -5 -9 -7 -23 -4 -30 4 -6 0 -4 -8 5 -8 10 -16 16 -19
13 -2 -3 -5 2 -5 10 0 8 4 12 8 9 4 -2 10 0 13 4 3 5 29 10 57 11 45 1 50 0
39 -14 -10 -12 -10 -15 4 -15 29 0 31 1 28 16 -3 13 13 15 97 12 54 -1 97 -6
95 -9 -2 -4 -17 -5 -33 -3 -22 4 -32 0 -40 -15 -8 -14 -8 -22 1 -27 7 -4 8 -3
4 4 -4 7 -1 12 9 12 12 0 14 -6 9 -26 -4 -17 -3 -25 3 -21 6 4 10 -3 9 -16 -1
-19 -6 -21 -43 -19 -26 2 -43 -1 -43 -7 0 -11 8 -12 92 -11 20 0 39 -4 43 -10
5 -8 12 -7 23 2 15 11 15 11 5 -2 -15 -19 -80 -25 -99 -10 -16 14 -37 3 -30
-15 9 -23 -22 -54 -49 -49 -16 3 -25 0 -25 -8 0 -9 -3 -8 -10 2 -8 13 -11 13
-22 1 -8 -9 -9 -11 -1 -7 6 3 14 2 17 -2 3 -5 17 -7 31 -4 21 4 24 1 19 -14
-5 -17 -4 -17 8 1 8 12 24 20 42 20 23 0 30 5 31 22 1 12 -2 20 -6 17 -4 -2
-10 0 -14 6 -4 6 10 9 37 9 24 -1 33 -4 21 -6 -13 -2 -23 -12 -23 -21 -1 -27
-26 -53 -44 -46 -9 3 -16 2 -16 -3 0 -18 43 -11 60 9 13 17 17 18 17 5 0 -9
-4 -14 -9 -11 -4 3 -8 0 -8 -5 0 -11 24 -15 68 -11 25 2 30 -18 6 -27 -15 -6
-15 -8 2 -20 11 -8 13 -13 5 -13 -8 0 -24 11 -37 25 -21 22 -23 23 -21 5 1
-11 8 -20 17 -21 8 -1 4 -4 -10 -8 -14 -4 -43 -6 -65 -5 -28 2 -34 0 -20 -5
11 -5 24 -6 29 -3 4 2 5 -6 2 -19 l-7 -24 16 25 15 25 -2 -25 c-2 -14 -10 -28
-18 -32 -11 -5 -10 -7 5 -7 17 -1 18 -3 5 -12 -13 -9 -13 -10 1 -6 9 3 22 1
30 -4 11 -7 11 -9 1 -9 -8 0 -10 -5 -6 -12 6 -10 4 -10 -7 0 -16 14 -33 16
-24 2 3 -5 0 -7 -9 -4 -8 3 -12 13 -10 22 5 15 4 15 -6 0 -6 -10 -16 -18 -22
-18 -6 0 -6 7 3 18 7 10 3 8 -10 -4 -13 -12 -20 -27 -17 -33 9 -14 46 -14 46
0 0 5 -5 7 -12 3 -7 -5 -8 -3 -3 6 7 11 10 10 19 -2 6 -8 25 -14 41 -13 17 0
42 -2 55 -6 19 -5 13 -7 -23 -8 -30 -1 -46 -5 -42 -11 4 -6 -4 -19 -16 -29
-17 -14 -19 -20 -9 -26 9 -6 11 -4 5 5 -6 9 -4 11 5 5 8 -5 11 -4 7 1 -3 5 9
10 27 10 20 0 33 -5 33 -13 0 -8 -4 -9 -12 -3 -7 6 -20 5 -36 -3 -14 -8 -37
-10 -57 -6 -18 4 -35 2 -38 -3 -4 -6 -10 -5 -15 3 -7 11 -9 11 -9 1 0 -8 -9
-11 -25 -8 -14 3 -23 1 -21 -3 3 -4 31 -7 63 -6 32 1 65 -1 74 -6 10 -5 21 -3
29 4 7 7 10 8 7 2 -3 -6 14 -10 44 -10 28 0 57 -3 67 -7 10 -4 0 -6 -23 -6
-22 0 -58 -1 -80 -2 l-40 -3 35 -7 c22 -5 28 -8 15 -10 -15 -2 -12 -4 10 -10
29 -7 29 -8 -10 -10 -22 -1 -64 -3 -93 -2 -29 0 -52 -1 -50 -2 2 -1 12 -8 22
-16 13 -10 17 -10 12 -2 -9 16 6 16 23 0 11 -10 13 -10 7 0 -4 6 -3 12 3 12 5
0 11 -6 14 -12 3 -10 7 -10 20 1 14 11 17 11 17 0 0 -11 2 -11 10 1 7 12 10
12 10 1 0 -8 6 -11 16 -7 8 3 13 2 10 -3 -3 -4 -19 -8 -37 -9 -46 -1 -49 -12
-3 -12 22 0 46 -6 53 -12 11 -10 13 -10 7 0 -4 6 -3 12 3 12 5 0 12 -6 14 -12
4 -10 8 -10 15 1 8 11 10 11 15 0 4 -12 7 -11 16 1 7 10 11 11 11 3 0 -10 37
-13 150 -13 137 0 171 6 140 25 -5 3 -10 2 -10 -3 0 -5 -12 -7 -27 -5 -16 3
-47 5 -70 5 -24 0 -40 4 -38 9 3 4 25 8 48 7 60 0 67 1 67 11 0 5 -10 7 -22 5
-15 -3 -18 -2 -8 3 21 11 19 36 -5 50 -18 12 -17 13 10 8 17 -2 37 0 45 6 13
9 12 10 -2 5 -15 -4 -16 0 -11 24 3 20 1 30 -6 30 -7 0 -9 -4 -6 -10 3 -5 1
-10 -4 -10 -6 0 -11 3 -11 8 0 4 -13 8 -30 8 -16 1 -30 -3 -30 -10 0 -6 -4 -5
-9 3 -19 30 8 48 66 45 52 -2 70 7 21 10 -13 1 -22 7 -20 14 1 9 -3 9 -19 0
-18 -12 -23 -10 -44 17 -13 16 -28 26 -32 22 -4 -5 -1 -12 6 -17 8 -4 11 -15
8 -24 -3 -8 -1 -18 5 -22 7 -4 5 -10 -6 -16 -9 -5 -13 -14 -10 -20 4 -7 2 -8
-5 -4 -6 4 -9 12 -6 17 6 9 -7 13 -35 10 -13 -2 -13 0 -1 8 9 6 21 6 32 0 15
-7 17 -5 15 14 -4 37 -12 43 -55 42 -27 -1 -38 2 -31 9 5 5 36 10 67 11 32 0
64 4 72 9 10 6 12 5 7 -2 -4 -7 -1 -12 9 -12 10 0 13 5 9 13 -6 9 -5 9 8 0 8
-7 18 -10 22 -6 6 7 24 11 59 15 32 4 17 13 -23 14 -22 1 -37 -2 -35 -7 3 -4
2 -10 -3 -13 -5 -3 -9 0 -9 7 0 7 -4 21 -9 31 -5 15 -4 17 6 11 7 -4 28 -9 46
-10 32 -2 33 -1 14 12 -17 12 -24 12 -35 3 -11 -9 -15 -9 -15 -1 0 6 -7 11
-15 11 -15 0 -19 -11 -15 -39 1 -12 -1 -12 -13 -3 -7 6 -16 11 -18 9 -2 -1 1
3 7 8 6 6 9 16 7 23 -3 7 5 12 21 12 14 0 26 6 26 13 0 8 4 7 10 -3 5 -8 10
-11 10 -7 0 4 9 3 20 -3 16 -9 20 -8 20 5 0 8 -3 14 -7 14 -18 -3 -33 2 -33
10 0 5 9 7 20 4 11 -3 20 0 20 6 0 6 -3 11 -7 12 -5 0 -21 3 -36 5 -22 4 -27
2 -21 -8 6 -11 4 -11 -7 0 -12 11 -12 14 1 22 8 5 17 7 21 4 4 -2 10 0 14 6 3
6 -3 10 -15 10 -31 0 -19 24 16 32 l29 7 -32 -3 c-25 -2 -33 2 -37 18 -9 32
-7 43 4 26 6 -10 10 -11 10 -2 0 6 4 12 10 12 5 0 7 -8 4 -17 -5 -17 -5 -17 6
0 6 9 15 15 21 12 5 -4 9 -1 9 5 0 7 -18 10 -47 8 -43 -2 -58 6 -53 28 1 4 -4
10 -12 15 -9 6 -6 8 10 6 22 -1 32 -17 11 -17 -5 0 -8 -4 -4 -9 7 -12 45 -5
59 10 8 9 7 10 -6 6 -10 -3 -20 -2 -23 3 -4 6 10 10 31 10 44 0 40 11 -5 12
-44 1 -38 15 7 16 20 0 42 1 47 2 6 1 13 2 18 1 4 0 7 3 7 9 0 5 -7 10 -15 10
-8 0 -15 -5 -15 -10 0 -6 -16 -1 -37 10 -20 10 -40 17 -45 14 -4 -3 -8 0 -8 7
0 7 -6 4 -14 -7 -13 -17 -15 -17 -21 -2 -4 9 -13 14 -21 11 -8 -3 -14 -1 -14
3 0 13 72 15 87 2 7 -6 14 -7 14 -2 9 66 8 74 -6 74 -8 0 -15 4 -15 9 0 5 11
8 24 5 23 -4 24 -3 13 26 -6 16 -13 27 -16 25 -2 -3 -10 0 -18 6 -9 9 -17 8
-27 0 -10 -8 -16 -9 -21 -1 -3 5 1 10 10 10 9 0 14 4 11 8 -2 4 7 9 22 10 22
1 24 0 12 -9 -13 -9 -13 -10 0 -5 8 3 23 9 33 12 28 10 19 20 -15 18 -30 -2
-31 -1 -14 12 10 7 24 11 30 7 6 -3 5 0 -1 8 -7 7 -13 21 -13 32 0 10 -4 15
-10 12 -5 -3 -10 -1 -10 4 0 6 4 11 8 11 5 0 9 16 10 35 1 21 -3 33 -8 30 -6
-3 -10 0 -10 7 0 10 -3 9 -9 -2 -10 -15 -5 -33 8 -26 3 3 7 -4 7 -14 0 -10 -3
-17 -7 -14 -4 2 -10 -2 -12 -8 -3 -7 -6 -4 -6 7 -1 17 -3 17 -11 5 -6 -9 -10
-10 -10 -3 0 6 4 14 9 17 4 3 8 16 7 28 -1 17 -7 23 -23 22 -15 -1 -23 4 -23
15 0 13 -2 14 -9 2 -5 -8 -8 -19 -7 -25 2 -6 1 -8 -1 -3 -3 4 -10 4 -15 1 -7
-4 -8 -2 -4 4 4 7 3 12 -2 12 -5 0 -8 11 -7 25 2 14 -1 22 -6 19 -5 -3 -8 -13
-7 -22 4 -26 -68 -30 -75 -5 -4 17 -5 17 -6 1 -1 -19 -36 -25 -46 -8 -9 14
-52 12 -58 -2 -4 -10 -6 -10 -6 0 -1 7 6 15 14 18 8 4 15 10 15 15 0 4 -7 6
-15 3 -8 -4 -17 1 -21 10 -3 9 -11 13 -18 9 -6 -4 -5 1 3 10 16 20 22 22 18 5
-1 -8 7 -12 21 -10 17 3 22 -2 22 -19 0 -27 9 -21 15 10 2 12 0 19 -6 16 -5
-4 -9 -1 -9 4 0 6 11 11 25 11 14 0 25 3 25 8 0 4 -27 6 -61 5 -46 -1 -59 2
-56 12 3 7 0 18 -6 25 -10 10 -6 11 18 7 33 -6 85 15 66 27 -6 4 -11 2 -11 -5
0 -7 -7 -4 -16 7 -8 10 -13 13 -9 7 3 -7 0 -13 -7 -13 -10 0 -9 -3 2 -11 13
-9 13 -10 0 -6 -8 2 -14 11 -12 20 2 11 -2 15 -12 11 -11 -4 -14 0 -11 16 2
13 7 25 11 29 4 3 5 -1 1 -10 -5 -15 7 -18 45 -10 3 0 4 10 1 21 -4 16 -2 19
13 14 15 -5 16 -4 5 4 -12 8 -12 13 -2 25 9 12 9 17 0 23 -7 4 -9 3 -6 -3 4
-6 0 -14 -9 -17 -12 -4 -14 -1 -9 14 5 15 3 18 -9 14 -9 -3 -13 -11 -9 -17 3
-6 1 -7 -5 -3 -7 4 -12 3 -12 -2 0 -5 10 -13 23 -16 21 -7 21 -8 3 -15 -14 -5
-16 -10 -8 -15 14 -8 16 -26 3 -26 -10 0 -23 34 -25 70 -2 17 -8 25 -19 24
-14 -2 -15 1 -6 13 10 11 14 11 20 1 7 -10 9 -10 9 1 0 8 7 11 20 8 24 -6 25
-1 5 19 -10 10 -15 11 -15 3 0 -9 -4 -8 -15 1 -11 9 -15 9 -15 1 0 -6 -13 -10
-30 -9 -19 1 -30 8 -30 18 0 12 -2 13 -9 1 -5 -7 -20 -15 -33 -16 -21 -2 -24
1 -20 24 5 36 -23 62 -33 31 -3 -11 -12 -18 -18 -14 -7 3 -4 -1 6 -9 9 -8 17
-16 17 -18 0 -2 -22 -5 -49 -7 -38 -2 -50 1 -55 14 -5 12 -2 15 9 10 10 -3 13
-2 10 5 -4 6 -13 8 -21 5 -9 -3 -14 1 -14 14 0 26 -11 30 -40 14 -16 -8 -19
-13 -9 -14 8 0 19 4 25 10 6 6 10 2 11 -13 0 -12 -1 -17 -3 -11 -3 6 -15 9
-27 7 -31 -6 -53 30 -29 49 15 12 16 11 4 -4 -9 -11 -10 -18 -2 -23 6 -4 15 7
22 25 10 30 13 31 53 28 31 -4 42 -1 42 9 0 9 -9 12 -29 9 -16 -2 -26 0 -22 5
3 5 9 7 14 4 4 -3 11 2 14 10 3 8 7 18 8 22 2 3 -5 7 -15 9 -15 2 -16 0 -5
-14 11 -13 11 -15 -3 -10 -9 4 -21 2 -27 -4 -6 -6 -12 -6 -16 1 -4 5 -13 8
-21 4 -13 -5 -20 7 -16 30 0 4 -5 7 -12 7 -8 0 -7 4 3 10 11 7 11 10 2 10 -7
0 -10 5 -7 10 3 6 -1 10 -9 10 -9 0 -16 4 -16 10 0 11 22 9 31 -3 3 -4 15 3
28 14 21 20 23 20 19 3 -2 -11 -10 -19 -18 -19 -9 0 -15 -10 -16 -22 -1 -13 3
-23 7 -23 5 0 9 5 9 11 0 15 30 43 38 34 4 -3 -1 -12 -11 -19 -9 -7 -17 -18
-17 -25 0 -6 -7 -11 -17 -11 -25 0 -5 -14 22 -16 15 0 25 5 25 13 0 8 -4 11
-10 8 -5 -3 -10 -1 -10 4 0 6 4 11 9 11 16 0 20 28 8 54 -8 17 -20 26 -35 26
-13 0 -21 -4 -18 -8 3 -5 -1 -9 -8 -9 -8 0 -12 6 -9 14 5 11 40 19 68 13 6 -1
4 4 -2 11 -7 7 -13 22 -13 33 0 17 -2 18 -10 6 -8 -12 -11 -13 -19 -1 -6 9
-11 10 -15 2 -4 -6 4 -15 18 -21 36 -13 32 -16 -16 -11 -24 3 -36 6 -28 8 12
3 15 14 12 43 -2 22 -9 40 -14 40 -6 0 -8 -15 -6 -35 3 -27 1 -32 -9 -23 -9 7
-13 7 -13 -1 0 -7 -5 -9 -12 -4 -18 11 -37 12 -43 3 -2 -4 -16 -5 -30 -3 -13
3 -22 9 -19 14 3 5 1 9 -5 9 -5 0 -13 -4 -16 -10 -3 -5 -20 -8 -38 -6 -25 3
-32 8 -31 24 1 12 -3 19 -7 16 -5 -3 -7 -9 -5 -13 3 -4 1 -13 -5 -21 -5 -8 -9
-10 -9 -4 0 6 -13 9 -31 6 -24 -3 -30 -1 -24 8 5 9 2 10 -14 5 -30 -9 -26 4 5
15 14 6 22 14 19 20 -3 5 2 10 11 10 10 0 14 3 11 7 -4 3 -26 6 -49 5 -39 -2
-40 -1 -22 13 10 8 24 14 29 15 6 0 3 -5 -5 -11 -13 -9 -13 -10 0 -6 8 2 16
11 18 20 2 11 -1 15 -11 11 -8 -3 -17 1 -20 8 -3 8 2 14 13 15 12 1 22 -9 29
-30 9 -25 14 -28 24 -18 9 11 9 14 -1 18 -10 4 -8 8 5 18 17 13 17 14 -1 34
-17 19 -43 20 -32 2 3 -4 -1 -8 -9 -8 -10 0 -12 4 -5 12 5 7 8 14 5 16 -2 3 5
6 17 6 25 2 26 3 32 37 4 23 2 27 -12 21 -14 -5 -15 -4 -4 7 11 11 16 10 26
-4 11 -15 13 -15 24 2 9 15 9 18 -2 14 -7 -3 -19 3 -27 12 -12 16 -12 17 5 11
16 -6 17 -5 6 8 -8 10 -9 15 -2 15 6 0 9 7 5 15 -3 9 -8 13 -12 10 -6 -6 -7
-10 -10 -36 0 -5 -6 -7 -13 -3 -8 5 -9 2 -5 -10 5 -12 3 -16 -5 -13 -7 2 -12
12 -10 22 2 9 -1 14 -6 11 -6 -4 -8 3 -4 16 5 19 7 20 10 6 2 -10 7 -18 12
-18 4 0 6 8 3 18 -3 14 1 18 16 17 11 -1 23 -4 27 -7 3 -4 12 -4 20 -1 8 3 21
0 28 -6 10 -8 16 -9 21 -1 9 15 58 13 52 -2 -2 -7 0 -22 4 -33 l9 -20 -1 20
c-2 39 3 49 11 20 l8 -30 1 28 c1 17 7 27 16 27 8 0 15 -5 15 -10 0 -6 10 -4
23 4 12 7 30 12 40 11 9 -2 17 1 17 6 0 6 -8 9 -17 7 -11 -2 -18 3 -18 12 0 8
-5 22 -10 30 -8 13 -7 13 8 1 9 -7 14 -17 11 -22 -3 -5 2 -9 10 -9 9 0 13 6
10 15 -9 22 5 38 21 25 10 -8 14 -7 17 2 4 10 9 10 23 -2 10 -8 16 -10 12 -4
-3 6 3 21 14 33 l20 21 -28 -1 c-46 -3 -65 0 -59 10 3 5 15 7 25 4 11 -3 28 0
38 7 16 10 16 11 1 6 -11 -3 -17 0 -15 6 3 15 -25 17 -35 3 -5 -6 -8 -6 -8 2
0 7 -6 10 -14 7 -8 -3 -17 -1 -20 4 -4 6 12 9 39 8 33 -1 45 2 45 12 0 12 -3
12 -15 2 -14 -12 -20 -7 -16 14 1 5 -4 4 -13 -3 -10 -8 -16 -9 -21 -1 -3 5 -3
10 1 10 3 0 1 7 -6 15 -9 10 -9 15 -1 15 6 0 11 -4 11 -10 0 -5 5 -10 11 -10
6 0 8 7 5 16 -5 13 -1 15 19 12 17 -4 24 -1 22 6 -3 6 -9 10 -15 9 -5 -1 -8 6
-5 16 3 10 -1 22 -8 27 -9 5 -10 2 -6 -10 4 -10 3 -15 -3 -11 -16 10 -11 33 8
38 12 3 10 5 -7 6 -24 1 -24 1 -5 15 15 11 22 12 34 3 13 -10 13 -10 2 5 -13
16 -16 16 -38 1 -14 -9 -23 -22 -20 -29 3 -8 2 -14 -3 -14 -11 0 -21 35 -21
73 0 15 -5 27 -11 27 -7 0 -10 -13 -7 -34 2 -19 0 -32 -4 -30 -4 3 -8 13 -9
22 0 12 -4 9 -11 -8 l-11 -25 -7 30 c-7 28 -8 28 -10 5 -1 -23 -2 -23 -10 -5
-7 16 -9 16 -9 4 -2 -38 -57 -22 -74 21 -3 9 -6 4 -6 -12 -1 -16 -7 -28 -14
-28 -7 0 -18 12 -24 28 -10 24 -11 25 -12 5 -1 -12 -5 -24 -9 -27 -4 -2 -6 11
-4 30 2 19 1 34 -2 34 -3 0 -6 -10 -6 -22z m-1883 -93 c0 -8 -4 -12 -9 -9 -4
3 -8 9 -8 15 0 5 4 9 8 9 5 0 9 -7 9 -15z m1677 7 c3 -5 -1 -9 -9 -9 -8 0 -12
4 -9 9 3 4 7 8 9 8 2 0 6 -4 9 -8z m114 -24 c15 3 23 1 19 -4 -19 -20 -74 -13
-61 8 5 8 9 8 11 1 2 -5 16 -8 31 -5z m379 -24 c-3 -3 -12 -4 -19 -1 -8 3 -5
6 6 6 11 1 17 -2 13 -5z m-2107 -19 c0 -2 -6 -8 -13 -14 -10 -8 -14 -7 -14 2
0 8 6 14 14 14 7 0 13 -1 13 -2z m36 -90 c1 -8 -4 -11 -12 -8 -15 6 -18 16 -7
26 8 9 16 1 19 -18z m1680 -2 c-3 -21 -14 -25 -33 -13 -16 9 -15 10 7 5 24 -6
24 -5 6 9 -18 14 -18 15 2 13 11 0 19 -7 18 -14z m-2100 -40 c-10 -10 -46 -11
-40 -1 3 4 15 8 26 8 12 0 18 -3 14 -7z m2529 -13 c3 -5 1 -10 -4 -10 -6 0
-11 5 -11 10 0 6 2 10 4 10 3 0 8 -4 11 -10z m-2074 -58 c4 -18 3 -35 -2 -38
-9 -5 -12 9 -12 49 0 13 -3 15 -10 8 -16 -16 -27 -13 -20 4 9 26 37 12 44 -23z
m1639 16 c0 -18 -2 -20 -9 -8 -6 8 -7 18 -5 22 9 14 14 9 14 -14z m64 14 c3
-5 -1 -9 -9 -9 -8 0 -12 4 -9 9 3 4 7 8 9 8 2 0 6 -4 9 -8z m-2144 -26 c0 -3
-4 -8 -10 -11 -5 -3 -10 -1 -10 4 0 6 5 11 10 11 6 0 10 -2 10 -4z m1987 -3
c-20 -3 -27 -9 -23 -19 3 -8 4 -14 2 -14 -3 0 -11 -3 -20 -6 -11 -4 -16 -1
-16 11 0 10 4 13 13 9 9 -6 9 -5 0 7 -11 14 -7 16 30 16 27 0 32 -1 14 -4z
m53 -8 c-22 -12 -17 -19 10 -17 3 0 6 -7 7 -17 1 -16 -1 -16 -22 3 -22 19 -23
22 -8 34 9 6 22 12 27 12 6 -1 0 -7 -14 -15z m-1663 -14 c1 -14 -3 -18 -13
-14 -11 4 -12 9 -3 19 15 18 14 18 16 -5z m20 -3 c-3 -8 -6 -5 -6 6 -1 11 2
17 5 13 3 -3 4 -12 1 -19z m1877 6 c3 -8 2 -12 -4 -9 -6 3 -10 10 -10 16 0 14
7 11 14 -7z m126 -6 c0 -7 -5 -6 -13 1 -8 6 -18 7 -22 3 -5 -4 -5 -2 -1 5 8
14 36 6 36 -9z m-2077 -3 c4 -8 3 -16 -1 -19 -4 -3 -9 4 -9 15 -2 23 3 25 10
4z m1758 -38 c-10 -9 -11 -8 -5 6 3 10 9 15 12 12 3 -3 0 -11 -7 -18z m-391
-10 c0 -8 -7 -14 -15 -14 -11 0 -12 4 -4 14 6 7 13 13 15 13 2 0 4 -6 4 -13z
m381 -11 c5 3 9 0 9 -6 0 -15 -23 -7 -26 8 -1 7 0 8 3 2 2 -5 9 -8 14 -4z
m-1661 -16 c-6 -11 -13 -20 -16 -20 -2 0 0 9 6 20 6 11 13 20 16 20 2 0 0 -9
-6 -20z m1700 -34 c0 -2 -8 -10 -17 -17 -16 -13 -17 -12 -4 4 13 16 21 21 21
13z m-390 -36 c0 -5 -2 -10 -4 -10 -3 0 -8 5 -11 10 -3 6 -1 10 4 10 6 0 11
-4 11 -10z m404 2 c3 -5 -1 -9 -9 -9 -8 0 -12 4 -9 9 3 4 7 8 9 8 2 0 6 -4 9
-8z m-89 -50 c-3 -3 -11 0 -18 7 -9 10 -8 11 6 5 10 -3 15 -9 12 -12z m57 11
c-6 -2 -9 -10 -6 -15 4 -7 2 -8 -4 -4 -18 11 -14 26 6 25 10 0 12 -3 4 -6z
m-1317 -11 c13 -9 18 -32 7 -32 -10 0 -32 22 -32 32 0 10 12 10 25 0z m1032
-28 c-3 -3 -12 -4 -19 -1 -8 3 -5 6 6 6 11 1 17 -2 13 -5z m350 0 c-3 -3 -12
-4 -19 -1 -8 3 -5 6 6 6 11 1 17 -2 13 -5z m-1860 -28 c35 -1 50 -17 21 -22
-10 -1 -18 2 -18 7 0 5 -5 9 -11 9 -5 0 -8 -4 -5 -8 2 -4 -5 -8 -18 -8 -14 0
-22 6 -22 17 0 10 5 15 10 11 6 -3 25 -6 43 -6z m1493 -40 c0 -2 -7 -7 -16
-10 -8 -3 -12 -2 -9 4 6 10 25 14 25 6z m270 -12 c0 -8 -19 -13 -24 -6 -3 5 1
9 9 9 8 0 15 -2 15 -3z m50 -4 c0 -5 -2 -10 -4 -10 -3 0 -8 5 -11 10 -3 6 -1
10 4 10 6 0 11 -4 11 -10z m-1755 -30 c3 -5 1 -10 -4 -10 -6 0 -11 5 -11 10 0
6 2 10 4 10 3 0 8 -4 11 -10z m395 -19 c0 -3 -13 -6 -29 -6 -21 0 -27 3 -20
11 10 12 49 8 49 -5z m-447 -8 c-7 -2 -19 -2 -25 0 -7 3 -2 5 12 5 14 0 19 -2
13 -5z m1404 1 c-3 -3 -12 -4 -19 -1 -8 3 -5 6 6 6 11 1 17 -2 13 -5z m690
-108 c-3 -8 -1 -17 6 -20 7 -2 4 -5 -5 -5 -10 -1 -18 1 -18 3 0 10 13 36 17
36 3 0 3 -6 0 -14z m-72 -16 c-3 -5 -12 -10 -18 -10 -7 0 -6 4 3 10 19 12 23
12 15 0z m92 -26 c-3 -3 -12 -4 -19 -1 -8 3 -5 6 6 6 11 1 17 -2 13 -5z m2
-41 c2 -1 -5 -1 -16 0 -11 0 -20 7 -20 14 0 10 4 10 16 1 9 -7 18 -13 20 -15z
m-2409 -9 c0 -2 -7 -4 -15 -4 -8 0 -15 4 -15 10 0 5 7 7 15 4 8 -4 15 -8 15
-10z m4 -30 c3 -8 2 -12 -4 -9 -6 3 -10 10 -10 16 0 14 7 11 14 -7z m2396 -18
c0 -11 -19 -15 -25 -6 -3 5 1 10 9 10 9 0 16 -2 16 -4z m-15 -36 c3 -5 1 -10
-4 -10 -6 0 -11 5 -11 10 0 6 2 10 4 10 3 0 8 -4 11 -10z m-2428 -30 c1 -11
-2 -20 -8 -20 -5 0 -9 9 -9 20 0 11 4 20 8 20 4 0 8 -9 9 -20z m53 -4 c0 -3
-4 -8 -10 -11 -5 -3 -10 -1 -10 4 0 6 5 11 10 11 6 0 10 -2 10 -4z m2427 -28
c-3 -8 -6 -5 -6 6 -1 11 2 17 5 13 3 -3 4 -12 1 -19z m-113 4 c3 -5 -1 -9 -9
-9 -8 0 -12 4 -9 9 3 4 7 8 9 8 2 0 6 -4 9 -8z m86 0 c0 -4 -10 -9 -22 -9 -18
-2 -20 0 -8 7 18 12 30 13 30 2z m104 0 c2 -4 -6 -9 -20 -10 -13 -1 -24 3 -24
8 0 12 37 14 44 2z m-2059 -39 c-3 -27 10 -19 19 12 3 11 4 4 3 -16 -2 -22 2
-36 9 -36 7 0 10 7 6 15 -4 11 -2 13 9 7 12 -8 12 -6 1 8 -14 17 -9 37 10 37
6 0 9 -14 6 -33 -3 -28 0 -33 19 -35 25 -2 43 22 36 48 -3 10 1 17 11 17 19 0
21 -18 4 -35 -9 -9 -8 -12 6 -12 9 0 15 -4 11 -10 -3 -5 -11 -8 -18 -6 -7 1
-8 1 -3 -2 4 -2 2 -8 -5 -13 -10 -6 -7 -8 8 -6 12 0 19 5 17 9 -3 4 2 8 11 8
10 0 13 -5 9 -12 -4 -7 6 -2 23 10 22 15 30 17 30 7 0 -8 -3 -12 -7 -10 -3 2
-12 0 -20 -6 -11 -6 -2 -9 30 -10 25 -1 49 -1 53 0 5 1 6 -2 4 -6 -3 -5 -29
-8 -57 -7 -33 1 -47 -2 -39 -7 11 -7 11 -9 -3 -9 -9 0 -18 5 -20 10 -2 6 -9 1
-16 -11 -8 -12 -10 -19 -5 -16 5 3 14 -3 21 -14 10 -16 10 -18 -5 -16 -10 1
-23 6 -30 10 -6 4 -14 3 -18 -3 -4 -6 -11 -7 -17 -4 -7 4 -8 2 -4 -5 6 -9 11
-9 22 0 8 6 15 9 15 5 1 -3 2 -10 3 -15 0 -5 5 -13 9 -18 5 -4 8 -3 7 2 -5 22
1 25 21 14 15 -8 19 -8 15 0 -11 17 10 13 28 -5 9 -8 16 -11 16 -5 0 6 10 10
23 10 19 -1 19 -2 3 -6 -15 -4 -16 -7 -5 -14 11 -7 9 -8 -6 -6 -11 1 -26 7
-34 11 -9 6 -12 5 -8 -1 4 -7 -13 -11 -45 -12 -74 -1 -73 -11 2 -11 80 0 71
-12 -12 -17 -86 -6 -86 -13 0 -13 40 0 71 -3 71 -7 -3 -21 2 -37 9 -28 4 6 14
16 23 22 13 10 16 10 16 -2 0 -7 -5 -13 -11 -12 -6 1 -10 -4 -9 -10 2 -7 -3
-12 -10 -10 -6 1 -11 -3 -10 -9 1 -6 -5 -11 -12 -11 -11 0 -12 4 -4 14 8 9 8
13 0 13 -6 0 -11 6 -11 14 0 10 -10 14 -30 14 -16 -1 -30 -5 -30 -9 0 -4 12
-6 26 -3 21 4 25 2 20 -11 -3 -9 -2 -13 4 -10 16 10 11 -1 -7 -16 -11 -10 -14
-10 -9 -1 4 6 5 12 2 12 -2 0 -11 3 -20 6 -11 4 -16 1 -16 -10 0 -11 -9 -16
-30 -16 -22 0 -28 -4 -24 -15 4 -8 1 -15 -5 -15 -6 0 -11 11 -11 25 0 21 -2
24 -14 13 -7 -7 -11 -19 -9 -25 3 -7 0 -13 -6 -13 -6 0 -12 12 -12 28 l-1 27
-7 -30 -8 -30 -10 25 c-6 14 -15 39 -20 55 -5 17 -14 29 -20 28 -6 -1 -10 3
-9 10 0 7 -3 13 -9 14 -5 1 -8 -6 -7 -15 2 -9 1 -14 -2 -11 -12 11 -15 49 -4
46 6 -1 13 4 15 11 3 7 -6 12 -24 13 -26 2 -27 2 -3 6 28 6 71 33 52 33 -7 0
-10 5 -7 10 5 8 12 7 23 -2 10 -7 14 -8 10 -4 -4 5 -2 16 5 25 10 14 10 14 -5
3 -22 -17 -35 3 -16 25 11 15 11 16 -4 10 -10 -3 -20 -1 -24 5 -4 7 -3 8 4 4
7 -4 12 -1 12 9 0 9 4 14 9 11 5 -4 8 4 7 17 -2 14 2 24 9 24 8 0 12 -11 10
-24z m93 -3 c-1 -16 -5 -30 -10 -30 -4 0 -8 14 -8 30 0 17 4 30 9 30 5 0 9
-13 9 -30z m1229 24 c-3 -3 -12 -4 -19 -1 -8 3 -5 6 6 6 11 1 17 -2 13 -5z
m48 -14 c-6 -10 15 -7 34 4 18 11 71 14 64 4 -2 -5 0 -8 6 -8 5 0 12 4 15 8 2
4 17 7 33 6 15 -1 36 -3 46 -3 9 -1 16 -4 15 -8 -3 -15 14 -43 23 -37 5 3 9 0
9 -5 0 -6 4 -11 10 -11 5 0 8 6 6 13 -1 6 -1 9 1 4 3 -4 10 -4 15 -1 7 5 8 2
3 -6 -6 -9 -4 -12 7 -8 8 4 20 3 27 -1 7 -4 -12 -9 -42 -10 -47 -1 -55 1 -60
19 -5 21 -27 28 -27 9 0 -5 5 -7 10 -4 6 3 10 0 10 -9 0 -8 -6 -16 -12 -19 -7
-2 3 -5 22 -6 19 -1 49 -3 67 -4 18 -2 35 -5 38 -9 3 -3 -8 -4 -25 -3 -20 2
-30 -2 -30 -11 0 -9 11 -14 32 -14 55 0 24 -9 -46 -14 -70 -4 -101 -15 -50
-17 19 -1 23 -3 10 -6 -10 -3 -29 1 -42 8 -13 7 -27 9 -31 6 -3 -4 1 -7 11 -7
9 0 14 -4 11 -10 -6 -10 14 -13 94 -11 24 0 40 -3 36 -7 -3 -4 -11 -8 -16 -8
-5 -1 -10 -3 -11 -4 -8 -7 -58 -8 -58 -1 0 5 -12 9 -27 9 -24 0 -24 -1 -7 -11
23 -14 25 -14 69 -16 55 -2 41 -16 -16 -15 -27 0 -52 -3 -54 -7 -3 -3 3 -6 13
-6 50 0 85 -4 80 -8 -3 -3 -31 -6 -62 -6 -31 -1 -54 -4 -52 -8 3 -4 37 -6 76
-5 51 1 69 -1 61 -9 -7 -7 -7 -14 0 -24 9 -10 8 -13 -5 -13 -9 0 -15 3 -15 8
4 24 -2 34 -18 27 -27 -12 -116 -13 -130 -2 -9 6 -13 6 -13 -1 0 -15 18 -19
88 -18 34 1 62 -3 62 -7 0 -5 -19 -8 -42 -7 -67 4 -100 1 -94 -9 3 -5 25 -7
49 -6 24 2 50 -1 58 -6 8 -5 -29 -8 -93 -7 -60 0 -106 4 -103 8 3 5 1 12 -5
15 -6 4 -10 3 -9 -2 3 -19 -2 -23 -14 -11 -12 10 -11 16 5 32 22 24 11 31 -29
21 -20 -5 -23 -9 -14 -15 15 -9 6 -30 -12 -30 -8 0 -8 3 2 9 9 6 10 11 2 15
-6 4 -9 11 -6 16 3 5 1 11 -5 15 -6 4 -5 13 2 25 7 10 15 17 19 14 5 -2 6 5 4
16 -3 13 1 20 12 20 10 0 13 -6 9 -16 -3 -9 -2 -12 5 -9 6 4 8 13 5 20 -2 7 0
17 6 23 7 7 3 14 -13 23 -23 12 -23 12 -4 21 18 8 18 8 -2 4 -27 -5 -28 1 -8
28 17 23 19 36 5 36 -5 0 -9 -3 -7 -7 5 -18 -29 -17 -36 0 -3 9 6 14 26 15 36
3 41 7 33 21 -5 7 -13 7 -26 -1 -26 -17 -37 -2 -16 21 17 18 52 19 41 1z m35
16 c0 -3 -4 -8 -10 -11 -5 -3 -10 -1 -10 4 0 6 5 11 10 11 6 0 10 -2 10 -4z
m-1212 -31 c-1 -14 -9 -25 -16 -25 -12 0 -12 3 -1 16 12 15 11 16 -9 10 -17
-6 -21 -4 -16 8 3 9 15 16 25 16 14 0 18 -6 17 -25z m32 4 c0 -6 -4 -7 -10 -4
-5 3 -10 11 -10 16 0 6 5 7 10 4 6 -3 10 -11 10 -16z m1450 11 c11 -7 5 -8
-20 -5 -19 2 -37 -1 -41 -7 -4 -6 -12 -7 -18 -4 -6 4 -9 12 -6 17 8 12 66 11
85 -1z m-373 -17 c0 -9 -4 -10 -13 -2 -8 7 -14 7 -19 -1 -3 -5 -14 -10 -23
-10 -12 0 -9 4 8 13 32 17 47 17 47 0z m993 -4 c0 -11 -4 -18 -10 -14 -5 3 -7
12 -3 20 7 21 13 19 13 -6z m-2340 -1 c0 -4 -7 -8 -15 -8 -8 0 -15 4 -15 8 0
5 7 9 15 9 8 0 15 -4 15 -9z m-780 -8 c0 -5 -4 -10 -9 -10 -5 0 -11 -8 -13
-17 -3 -15 -5 -14 -10 5 -3 12 -2 20 3 16 5 -3 9 0 9 5 0 6 5 11 10 11 6 0 10
-4 10 -10z m40 -26 c0 -2 -9 -4 -21 -4 -11 0 -18 4 -14 10 5 8 35 3 35 -6z
m740 -23 c7 -14 7 -22 0 -26 -6 -4 -7 -11 -4 -17 4 -7 2 -8 -4 -4 -7 4 -12 1
-12 -6 0 -10 -2 -10 -9 1 -6 9 -4 23 7 40 16 24 16 25 -1 18 -9 -3 -17 -2 -17
3 0 18 29 11 40 -9z m1372 -8 c-6 -2 -9 -10 -6 -15 4 -7 2 -8 -4 -4 -7 4 -12
2 -12 -3 0 -6 5 -11 11 -11 12 0 65 -39 55 -41 -3 -1 -9 -2 -13 -3 -18 -3 -33
-18 -28 -27 4 -5 1 -9 -4 -9 -6 0 -11 -7 -11 -15 0 -8 -5 -15 -11 -15 -5 0 -8
4 -4 9 3 6 -3 14 -12 20 -10 5 -15 13 -11 17 4 4 14 1 23 -6 13 -11 14 -10 9
5 -5 12 -4 16 4 11 6 -3 13 -2 17 4 6 10 -2 13 -45 12 l-25 -1 25 8 c22 7 23
9 8 16 -10 4 -25 5 -33 2 -8 -4 -17 -2 -20 4 -4 5 -3 9 2 8 29 -5 52 4 58 21
3 11 14 20 23 19 11 0 12 -2 4 -6z m-1114 -14 c-2 -6 3 -14 11 -17 9 -3 11 0
6 8 -5 9 -4 11 4 6 8 -6 9 -12 2 -20 -6 -7 -8 -16 -4 -20 4 -3 -4 -4 -18 -2
-13 2 -27 5 -31 5 -4 1 -12 10 -17 20 -9 16 -8 18 8 14 10 -3 22 0 25 6 9 14
17 14 14 0z m-998 -13 c0 -2 -11 -6 -25 -8 -14 -3 -25 -1 -25 3 0 5 11 9 25 9
14 0 25 -2 25 -4z m3083 -33 c-7 -2 -21 -2 -30 0 -10 3 -4 5 12 5 17 0 24 -2
18 -5z m-1033 -37 c0 -3 -4 -8 -10 -11 -5 -3 -10 -1 -10 4 0 6 5 11 10 11 6 0
10 -2 10 -4z m964 -4 c2 -4 -5 -9 -17 -9 -17 -2 -19 0 -7 7 18 12 18 12 24 2z
m46 2 c0 -8 -19 -13 -24 -6 -3 5 1 9 9 9 8 0 15 -2 15 -3z m23 -11 c-5 -12 -2
-15 10 -10 11 4 14 2 10 -9 -6 -17 -23 -19 -23 -1 0 8 -4 7 -10 -3 -13 -20
-13 -4 0 21 13 23 22 25 13 2z m-1022 -36 c-10 -9 -11 -8 -5 6 3 10 9 15 12
12 3 -3 0 -11 -7 -18z m980 5 c-7 -2 -18 1 -23 6 -8 8 -4 9 13 5 13 -4 18 -8
10 -11z m-2293 -25 c3 -9 1 -9 -18 -3 -40 12 -43 15 -15 13 17 -1 31 -6 33
-10z m1322 -2 c-9 -10 -9 -15 -1 -15 6 0 11 -4 11 -10 0 -17 -14 -11 -28 11
-8 12 -9 18 -3 15 5 -4 12 -2 16 4 3 5 9 10 12 10 3 0 0 -7 -7 -15z m430 -9
c-4 -4 -16 -4 -26 2 -16 9 -14 10 8 9 15 -1 23 -6 18 -11z m-1786 -12 c3 -8 2
-12 -4 -9 -6 3 -10 10 -10 16 0 14 7 11 14 -7z m1446 2 c0 -11 -19 -15 -25 -6
-3 5 1 10 9 10 9 0 16 -2 16 -4z m855 -14 c-3 -3 -11 0 -18 7 -9 10 -8 11 6 5
10 -3 15 -9 12 -12z m-2255 -2 c0 -5 -4 -10 -10 -10 -5 0 -10 5 -10 10 0 6 5
10 10 10 6 0 10 -4 10 -10z m2357 4 c-3 -3 -12 -4 -19 -1 -8 3 -5 6 6 6 11 1
17 -2 13 -5z m-1062 -23 c3 -5 2 -12 -3 -15 -5 -3 -9 1 -9 9 0 17 3 19 12 6z
m-2165 -11 c0 -5 -6 -10 -14 -10 -8 0 -18 5 -21 10 -3 6 3 10 14 10 12 0 21
-4 21 -10z m93 3 c-7 -2 -19 -2 -25 0 -7 3 -2 5 12 5 14 0 19 -2 13 -5z m932
-3 c-3 -5 -13 -10 -21 -10 -8 0 -14 5 -14 10 0 6 9 10 21 10 11 0 17 -4 14
-10z m152 4 c-8 -9 -87 -13 -87 -4 0 4 21 8 47 9 26 1 44 -1 40 -5z m1368 -4
c3 -5 1 -10 -4 -10 -6 0 -11 5 -11 10 0 6 2 10 4 10 3 0 8 -4 11 -10z m42 -6
c-3 -3 -12 -4 -19 -1 -8 3 -5 6 6 6 11 1 17 -2 13 -5z m947 -26 c-3 -4 -9 -8
-15 -8 -5 0 -9 4 -9 8 0 5 7 9 15 9 8 0 12 -4 9 -9z m-62 -38 c10 0 18 -4 18
-10 0 -6 -9 -6 -24 0 -13 5 -26 7 -28 4 -3 -2 -5 3 -5 11 0 11 4 12 11 5 5 -5
18 -10 28 -10z m46 -5 c-3 -3 -9 2 -12 12 -6 14 -5 15 5 6 7 -7 10 -15 7 -18z
m-3768 -15 c0 -5 -2 -10 -4 -10 -3 0 -8 5 -11 10 -3 6 -1 10 4 10 6 0 11 -4
11 -10z m3717 -16 c-3 -3 -12 -4 -19 -1 -8 3 -5 6 6 6 11 1 17 -2 13 -5z
m-3697 -14 c0 -5 -5 -10 -11 -10 -5 0 -7 5 -4 10 3 6 8 10 11 10 2 0 4 -4 4
-10z m3771 -57 c13 -17 13 -17 -6 -3 -11 8 -22 16 -24 17 -2 2 0 3 6 3 6 0 17
-8 24 -17z m-3871 -39 c0 -8 -19 -13 -24 -6 -3 5 1 9 9 9 8 0 15 -2 15 -3z
m3855 -62 c-3 -3 -11 0 -18 7 -9 10 -8 11 6 5 10 -3 15 -9 12 -12z m-2 -19
c-7 -2 -19 -2 -25 0 -7 3 -2 5 12 5 14 0 19 -2 13 -5z m-26 -35 c-3 -8 -6 -5
-6 6 -1 11 2 17 5 13 3 -3 4 -12 1 -19z m75 15 c-6 -2 -9 -10 -6 -15 4 -7 2
-8 -5 -4 -13 9 -5 26 12 25 9 0 8 -2 -1 -6z m-3811 -10 c-11 -5 -11 -7 0 -15
11 -8 10 -9 -3 -4 -10 3 -18 0 -18 -6 0 -6 -3 -8 -6 -5 -9 8 15 37 30 36 6 0
5 -3 -3 -6z m-47 -41 c3 -5 -1 -9 -9 -9 -8 0 -15 4 -15 9 0 4 4 8 9 8 6 0 12
-4 15 -8z m380 -7 c-4 -8 -11 -12 -16 -9 -6 4 -5 10 3 15 19 12 19 11 13 -6z
m283 9 c-3 -3 -12 -4 -19 -1 -8 3 -5 6 6 6 11 1 17 -2 13 -5z m50 0 c-3 -3
-12 -4 -19 -1 -8 3 -5 6 6 6 11 1 17 -2 13 -5z m2440 -20 c-9 -9 -28 6 -21 18
4 6 10 6 17 -1 6 -6 8 -13 4 -17z m600 11 c0 -8 -4 -12 -9 -9 -4 3 -8 9 -8 15
0 5 4 9 8 9 5 0 9 -7 9 -15z m-677 0 c0 -7 -30 -13 -34 -7 -3 4 4 9 15 9 10 1
19 0 19 -2z m40 -5 c0 -5 -4 -10 -9 -10 -6 0 -13 5 -16 10 -3 6 1 10 9 10 9 0
16 -4 16 -10z m-3151 -21 c1 11 4 11 18 0 9 -8 14 -9 10 -3 -3 6 0 11 8 11 8
0 11 -5 8 -10 -4 -6 2 -8 14 -5 12 3 27 1 34 -4 11 -8 10 -9 -3 -4 -10 3 -18
2 -18 -2 0 -4 -22 -7 -48 -7 -43 -1 -48 2 -46 20 4 31 5 32 14 10 5 -11 9 -14
9 -6z m3544 -2 c4 3 7 1 7 -5 0 -7 -5 -12 -11 -12 -6 0 -8 -7 -4 -17 4 -13 3
-15 -5 -7 -6 6 -12 21 -15 33 -3 18 -1 20 9 12 7 -6 16 -8 19 -4z m-353 -18
c0 -5 -4 -9 -8 -9 -5 0 -9 7 -9 15 0 8 4 12 9 9 4 -3 8 -9 8 -15z m655 3 c-3
-3 -11 0 -18 7 -9 10 -8 11 6 5 10 -3 15 -9 12 -12z m-637 -32 c-2 -42 -21
-70 -33 -50 -3 5 1 10 10 10 9 0 13 5 10 10 -4 6 -11 7 -17 4 -7 -4 -8 -2 -4
5 4 6 11 9 15 6 5 -2 8 3 8 13 0 29 3 42 8 42 3 0 5 -18 3 -40z m377 30 c-3
-5 -12 -10 -18 -10 -7 0 -6 4 3 10 19 12 23 12 15 0z m-449 -12 c4 -7 4 -10
-1 -6 -4 4 -15 2 -24 -5 -14 -11 -14 -10 -2 6 16 20 18 21 27 5z m21 -2 c-4
-10 0 -12 15 -8 14 3 19 1 14 -6 -4 -7 -20 -12 -37 -12 -28 0 -28 1 -11 19 21
24 26 25 19 7z m603 -21 c0 -7 -30 -13 -34 -7 -3 4 4 9 15 9 10 1 19 0 19 -2z
m49 -5 c-6 -5 -18 -6 -26 -3 -19 8 -16 11 13 11 17 0 22 -3 13 -8z m-3772 -17
c0 -9 -4 -10 -14 -2 -7 6 -13 12 -13 14 0 1 6 2 13 2 8 0 14 -6 14 -14z m3073
13 c0 -3 -4 -8 -10 -11 -5 -3 -10 -1 -10 4 0 6 5 11 10 11 6 0 10 -2 10 -4z
m479 -12 c2 -2 -13 -3 -33 -2 -20 1 -36 5 -36 9 0 7 61 1 69 -7z m-3581 -29
c0 -27 -22 -34 -32 -10 -3 9 0 15 9 15 8 0 15 5 15 10 0 7 -6 7 -19 1 -10 -6
-22 -7 -27 -3 -5 4 -2 -1 5 -11 8 -9 11 -21 7 -24 -4 -4 -11 -2 -15 6 -6 10
-10 9 -15 -4 -5 -14 -2 -16 19 -13 14 3 28 2 31 -3 2 -4 11 -6 19 -2 8 3 15 0
15 -7 0 -6 -4 -9 -9 -6 -4 3 -8 -5 -7 -17 1 -12 8 -22 16 -22 9 0 14 -8 12
-18 -2 -9 2 -17 8 -17 5 0 10 5 10 10 0 6 5 10 11 10 8 0 8 -4 0 -14 -8 -10
-9 -16 -1 -21 5 -3 10 -2 10 3 0 5 6 9 14 9 8 0 12 -5 10 -12 -3 -6 -19 -11
-37 -10 -18 0 -35 -4 -39 -10 -5 -6 -8 -6 -8 2 0 6 4 15 10 18 12 7 -10 45
-25 45 -6 0 -11 12 -10 27 0 23 -4 27 -29 28 -35 0 -43 26 -15 51 10 9 19 14
19 10 0 -4 8 -3 17 3 23 12 31 7 31 -24z m3812 15 c-12 -22 -21 -26 -17 -7 2
10 17 26 25 27 1 0 -2 -9 -8 -20z m-658 -34 c-2 -5 1 -6 9 -4 20 8 49 -10 43
-26 -7 -19 -38 -15 -46 7 -4 10 -12 16 -17 12 -5 -3 -13 0 -17 6 -4 7 -3 9 4
5 6 -3 13 -2 16 3 7 11 -29 25 -42 17 -4 -2 -14 -1 -22 4 -10 7 -3 9 23 7 21
-2 37 1 38 7 0 6 4 2 8 -9 5 -11 6 -24 3 -29z m622 36 c2 -4 -5 -9 -17 -9 -17
-2 -19 0 -7 7 18 12 18 12 24 2z m-3734 -23 c0 -4 -6 -9 -13 -12 -8 -3 -14 0
-14 7 0 7 6 13 14 13 7 0 13 -4 13 -8z m701 -6 c13 -16 12 -17 -3 -4 -10 7
-18 15 -18 17 0 8 8 3 21 -13z m3123 -46 c-3 -11 -2 -17 3 -14 5 3 9 -3 9 -14
0 -14 -5 -19 -18 -16 -10 3 -20 1 -24 -4 -3 -5 -15 -14 -27 -19 -21 -11 -21
-11 -3 4 11 9 17 17 13 17 -4 1 -11 2 -16 3 -16 2 -23 14 -16 27 6 8 11 7 18
-6 7 -14 11 -15 17 -4 5 8 2 18 -8 26 -16 12 -16 13 1 7 13 -5 16 -2 11 9 -3
9 -14 14 -25 12 -10 -2 -21 0 -23 4 -10 16 42 5 59 -12 9 -10 20 -15 24 -11 3
4 0 9 -6 11 -7 3 -13 12 -13 21 1 15 3 14 15 -2 8 -11 12 -29 9 -39z m-394 39
c0 -3 -4 -8 -10 -11 -5 -3 -10 -1 -10 4 0 6 5 11 10 11 6 0 10 -2 10 -4z m294
-12 c3 -8 2 -12 -4 -9 -6 3 -10 10 -10 16 0 14 7 11 14 -7z m-740 -12 c2 -4
-5 -9 -17 -9 -17 -2 -19 0 -7 7 18 12 18 12 24 2z m117 -9 c2 1 3 0 2 -2 -2
-2 -19 -4 -38 -5 -30 -1 -33 1 -19 11 11 8 23 9 34 3 10 -5 19 -8 21 -7z m319
-23 c-18 -11 -22 -7 -14 14 5 13 10 14 18 6 8 -8 7 -13 -4 -20z m-3435 10 c3
-5 -1 -10 -10 -10 -9 0 -13 5 -10 10 3 6 8 10 10 10 2 0 7 -4 10 -10z m3509
-2 c-3 -4 -9 -8 -15 -8 -5 0 -9 4 -9 8 0 5 7 9 15 9 8 0 12 -4 9 -9z m40 0
c-3 -4 -9 -8 -15 -8 -5 0 -9 4 -9 8 0 5 7 9 15 9 8 0 12 -4 9 -9z m-2874 -38
c0 -5 -5 -10 -11 -10 -5 0 -7 5 -4 10 3 6 8 10 11 10 2 0 4 -4 4 -10z m49 1
c10 -7 7 -9 -12 -8 -15 1 -27 5 -27 10 0 10 22 9 39 -2z m3111 -15 c0 -2 -7
-7 -16 -10 -8 -3 -12 -2 -9 4 6 10 25 14 25 6z m-735 -46 c3 -6 -1 -7 -9 -4
-18 7 -21 14 -7 14 6 0 13 -4 16 -10z m662 -26 c-3 -3 -12 -4 -19 -1 -8 3 -5
6 6 6 11 1 17 -2 13 -5z m33 -13 c-5 -11 -16 -23 -23 -27 -8 -5 -7 -2 2 9 7 9
10 17 5 17 -5 0 -2 5 6 10 21 14 22 13 10 -9z m-260 -7 c0 -7 -9 -11 -20 -9
-11 2 -22 0 -25 -6 -4 -5 -1 -9 4 -9 6 0 11 -7 11 -16 0 -9 -5 -14 -12 -12
-14 5 -19 36 -7 44 5 3 7 9 5 13 -3 4 6 7 20 7 13 0 24 -6 24 -12z m46 4 c4
-7 4 -10 -1 -6 -4 4 -15 2 -24 -5 -14 -11 -14 -10 -2 6 16 20 18 21 27 5z
m-3196 -14 c0 -8 -19 -13 -24 -6 -3 5 1 9 9 9 8 0 15 -2 15 -3z m710 -4 c0 -5
-5 -10 -11 -10 -5 0 -7 5 -4 10 3 6 8 10 11 10 2 0 4 -4 4 -10z m1894 2 c3 -5
-1 -9 -9 -9 -8 0 -12 4 -9 9 3 4 7 8 9 8 2 0 6 -4 9 -8z m81 -10 c-3 -3 -11 0
-18 7 -9 10 -8 11 6 5 10 -3 15 -9 12 -12z m680 0 c-3 -3 -11 0 -18 7 -9 10
-8 11 6 5 10 -3 15 -9 12 -12z m-3700 -12 c3 -5 1 -10 -4 -10 -6 0 -11 5 -11
10 0 6 2 10 4 10 3 0 8 -4 11 -10z m722 4 c-3 -3 -12 -4 -19 -1 -8 3 -5 6 6 6
11 1 17 -2 13 -5z m2765 -15 c-9 -10 -17 -19 -17 -19 0 0 -1 8 -2 18 -1 11 6
18 17 19 17 2 18 0 2 -18z m-2447 -12 c0 -13 -6 -24 -13 -24 -7 0 -10 7 -7 14
3 8 5 19 5 24 0 5 3 9 8 9 4 0 7 -10 7 -23z m2105 17 c0 0 -8 -8 -18 -17 -16
-15 -18 -15 -18 3 0 12 7 18 18 17 10 -1 18 -2 18 -3z m-3202 -27 c-11 -9 -13
-18 -8 -28 7 -12 4 -15 -12 -14 -11 1 -25 10 -30 20 -6 10 -7 15 -2 12 5 -3
20 1 34 9 31 17 40 17 18 1z m3062 -1 c0 -3 -4 -8 -10 -11 -5 -3 -10 -1 -10 4
0 6 5 11 10 11 6 0 10 -2 10 -4z m-2383 -32 c-3 -3 -12 -4 -19 -1 -8 3 -5 6 6
6 11 1 17 -2 13 -5z m2428 -7 c3 -4 2 -5 -1 -2 -4 2 -14 0 -24 -5 -12 -6 -17
-5 -17 4 0 13 32 15 42 3z m-2389 -14 c-9 -10 -65 -13 -70 -5 -3 5 13 9 34 9
22 0 38 -2 36 -4z m2789 -23 c3 -5 1 -10 -4 -10 -6 0 -11 5 -11 10 0 6 2 10 4
10 3 0 8 -4 11 -10z m60 0 c-3 -5 -12 -10 -18 -10 -7 0 -6 4 3 10 19 12 23 12
15 0z m-712 -7 c-7 -2 -19 -2 -25 0 -7 3 -2 5 12 5 14 0 19 -2 13 -5z m182 -2
c3 -5 2 -12 -3 -15 -5 -3 -9 1 -9 9 0 17 3 19 12 6z m-1945 -7 c0 -8 -19 -13
-24 -6 -3 5 1 9 9 9 8 0 15 -2 15 -3z m2030 -15 c0 -8 -47 -6 -55 3 -3 2 9 4
25 4 17 0 30 -3 30 -7z m-247 -6 c-7 -2 -19 -2 -25 0 -7 3 -2 5 12 5 14 0 19
-2 13 -5z m-2483 -9 c0 -8 -19 -13 -24 -6 -3 5 1 9 9 9 8 0 15 -2 15 -3z
m2607 -3 c8 7 13 8 13 1 0 -18 -28 -21 -41 -4 -11 14 -11 15 1 5 10 -9 17 -10
27 -2z m53 -1 c0 -5 7 -7 15 -4 8 4 15 1 15 -7 0 -7 -3 -9 -7 -6 -3 4 -12 2
-20 -5 -11 -9 -13 -8 -11 3 2 8 -3 13 -10 11 -8 -1 -11 2 -7 8 8 13 25 13 25
0z m734 2 c3 -5 -1 -9 -9 -9 -8 0 -12 4 -9 9 3 4 7 8 9 8 2 0 6 -4 9 -8z m84
-10 c2 -6 -5 -8 -18 -5 -29 8 -36 24 -9 20 13 -2 25 -9 27 -15z m-54 -23 c-2
-4 6 -15 18 -23 12 -9 17 -16 10 -16 -7 0 -22 9 -34 20 -12 11 -17 20 -10 20
6 0 9 8 6 18 -5 14 -4 14 4 2 6 -8 9 -17 6 -21z m-34 -9 c0 -5 -5 -10 -11 -10
-5 0 -7 5 -4 10 3 6 8 10 11 10 2 0 4 -4 4 -10z m-197 -37 c-7 -2 -19 -2 -25
0 -7 3 -2 5 12 5 14 0 19 -2 13 -5z m-860 -27 c3 3 13 2 21 -3 12 -6 5 -9 -23
-9 -29 0 -38 3 -34 13 4 9 9 10 18 3 6 -5 14 -7 18 -4z m1085 7 c-10 -2 -26
-2 -35 0 -10 3 -2 5 17 5 19 0 27 -2 18 -5z m-3461 -29 c-3 -3 -12 -4 -19 -1
-8 3 -5 6 6 6 11 1 17 -2 13 -5z m1153 -14 c0 -5 -5 -10 -11 -10 -5 0 -7 5 -4
10 3 6 8 10 11 10 2 0 4 -4 4 -10z m1320 6 c0 -3 -4 -8 -10 -11 -5 -3 -10 -1
-10 4 0 6 5 11 10 11 6 0 10 -2 10 -4z m-1833 -38 c-3 -8 -6 -5 -6 6 -1 11 2
17 5 13 3 -3 4 -12 1 -19z m57 7 c-4 -8 -8 -15 -10 -15 -2 0 -4 7 -4 15 0 8 4
15 10 15 5 0 7 -7 4 -15z m1779 -8 c3 -8 0 -14 -7 -14 -7 0 -13 6 -13 14 0 7
4 13 8 13 4 0 9 -6 12 -13z m-1066 -19 c-3 -8 -6 -5 -6 6 -1 11 2 17 5 13 3
-3 4 -12 1 -19z m400 -14 c-9 -9 -28 6 -21 18 4 6 10 6 17 -1 6 -6 8 -13 4
-17z m-1060 10 c-3 -3 -12 -4 -19 -1 -8 3 -5 6 6 6 11 1 17 -2 13 -5z m1631
-29 c-3 -3 -9 2 -12 12 -6 14 -5 15 5 6 7 -7 10 -15 7 -18z m43 12 c-6 -8 -7
-18 -3 -23 4 -4 -1 -2 -10 5 -19 14 -25 26 -9 16 5 -3 12 -1 16 5 3 5 9 10 12
10 3 0 0 -6 -6 -13z m33 -11 c-6 -15 -24 -23 -24 -11 0 8 24 34 28 30 1 -1 0
-10 -4 -19z m-24 -30 c0 -2 -11 -6 -25 -8 -14 -3 -25 -1 -25 3 0 5 11 9 25 9
14 0 25 -2 25 -4z m64 -5 c3 -5 -5 -8 -19 -7 -14 0 -25 4 -25 9 0 10 38 9 44
-2z m-1724 -15 c0 -11 -19 -15 -25 -6 -3 5 1 10 9 10 9 0 16 -2 16 -4z m1584
-44 c3 -5 -1 -9 -9 -9 -8 0 -12 4 -9 9 3 4 7 8 9 8 2 0 6 -4 9 -8z m-537 -18
c-3 -3 -12 -4 -19 -1 -8 3 -5 6 6 6 11 1 17 -2 13 -5z m-71 -36 c4 -6 3 -8 -2
-5 -6 3 -16 2 -24 -4 -13 -7 -13 -9 0 -9 8 0 21 -10 29 -22 9 -16 9 -19 1 -11
-8 8 -20 9 -36 3 -15 -6 -24 -6 -24 0 0 6 10 10 22 10 21 0 21 0 2 15 -16 13
-17 16 -4 25 20 13 27 13 36 -2z m-321 -8 c3 -5 1 -10 -4 -10 -6 0 -11 5 -11
10 0 6 2 10 4 10 3 0 8 -4 11 -10z m255 -6 c0 -8 -19 -13 -24 -6 -3 5 1 9 9 9
8 0 15 -2 15 -3z m774 -31 c4 -10 -6 -13 -44 -12 -28 1 -50 5 -50 9 0 5 16 6
36 3 21 -3 34 -1 31 4 -4 5 0 10 8 10 8 0 16 -6 19 -14z m-1790 -54 c-3 -5
-10 -7 -15 -3 -5 3 -7 10 -3 15 3 5 10 7 15 3 5 -3 7 -10 3 -15z m1126 1 c0
-5 -2 -10 -4 -10 -3 0 -8 5 -11 10 -3 6 -1 10 4 10 6 0 11 -4 11 -10z m-1046
-8 c3 -5 -1 -9 -9 -9 -8 0 -15 4 -15 9 0 4 4 8 9 8 6 0 12 -4 15 -8z m643 2
c-3 -3 -12 -4 -19 -1 -8 3 -5 6 6 6 11 1 17 -2 13 -5z"/>
<path d="M1870 2796 c7 -7 13 -7 20 0 6 6 3 10 -10 10 -13 0 -16 -4 -10 -10z"/>
<path d="M1840 2786 c0 -2 7 -7 16 -10 8 -3 12 -2 9 4 -6 10 -25 14 -25 6z"/>
<path d="M1710 2730 c13 -9 13 -11 0 -21 -12 -8 -9 -9 10 -4 20 6 23 5 13 -6
-15 -16 -17 -33 -3 -24 6 3 10 1 10 -4 0 -6 5 -11 12 -11 9 0 9 3 0 12 -16 16
-15 31 1 22 6 -4 1 5 -12 19 -14 15 -29 27 -35 27 -6 0 -4 -5 4 -10z"/>
<path d="M1798 2663 c7 -3 16 -2 19 1 4 3 -2 6 -13 5 -11 0 -14 -3 -6 -6z"/>
<path d="M3090 2885 c-8 -9 -8 -15 -2 -15 12 0 26 19 19 26 -2 2 -10 -2 -17
-11z"/>
<path d="M3191 2874 c0 -11 3 -14 6 -6 3 7 2 16 -1 19 -3 4 -6 -2 -5 -13z"/>
<path d="M3277 2877 c-3 -8 1 -14 8 -14 7 0 11 6 8 14 -3 7 -6 13 -8 13 -2 0
-5 -6 -8 -13z"/>
<path d="M3220 2870 c-13 -8 -12 -10 3 -10 9 0 17 5 17 10 0 12 -1 12 -20 0z"/>
<path d="M3126 2813 c-6 -14 -5 -15 5 -6 7 7 10 15 7 18 -3 3 -9 -2 -12 -12z"/>
<path d="M3256 2813 c-6 -14 -5 -15 5 -6 7 7 10 15 7 18 -3 3 -9 -2 -12 -12z"/>
<path d="M3290 2795 c15 -18 82 -13 88 5 4 13 3 13 -10 2 -13 -10 -17 -10 -21
0 -4 10 -7 11 -18 1 -15 -15 -33 -18 -25 -5 3 5 -1 9 -9 9 -10 0 -12 -4 -5
-12z"/>
<path d="M3173 2745 c0 -8 4 -12 9 -9 5 3 6 10 3 15 -9 13 -12 11 -12 -6z"/>
<path d="M3235 2749 c-4 -6 -5 -12 -2 -15 2 -3 7 2 10 11 7 17 1 20 -8 4z"/>
<path d="M3095 2650 c-4 -6 -11 -7 -17 -4 -7 4 -8 2 -4 -5 6 -9 11 -9 22 0 14
11 18 19 10 19 -3 0 -8 -5 -11 -10z"/>
<path d="M3120 2656 c0 -2 7 -7 16 -10 8 -3 12 -2 9 4 -6 10 -25 14 -25 6z"/>
<path d="M3166 2595 c4 -8 11 -15 16 -15 6 0 5 6 -2 15 -7 8 -14 15 -16 15 -2
0 -1 -7 2 -15z"/>
<path d="M3206 2578 c3 -4 9 -8 15 -8 5 0 9 4 9 8 0 5 -7 9 -15 9 -8 0 -12 -4
-9 -9z"/>
<path d="M1689 2783 c-13 -16 -12 -17 4 -4 9 7 17 15 17 17 0 8 -8 3 -21 -13z"/>
<path d="M3070 2756 c0 -2 8 -10 18 -17 15 -13 16 -12 3 4 -13 16 -21 21 -21
13z"/>
<path d="M1941 2771 c-10 -6 -9 -10 3 -14 8 -3 18 -2 21 3 8 13 -9 20 -24 11z"/>
<path d="M4385 2000 c4 -6 1 -19 -7 -28 -11 -15 -11 -15 3 -5 9 7 18 10 22 7
3 -3 3 3 0 15 -3 12 -10 21 -15 21 -5 0 -6 -5 -3 -10z"/>
<path d="M530 1759 c0 -5 5 -7 10 -4 6 3 10 8 10 11 0 2 -4 4 -10 4 -5 0 -10
-5 -10 -11z"/>
<path d="M3741 3994 c0 -11 3 -14 6 -6 3 7 2 16 -1 19 -3 4 -6 -2 -5 -13z"/>
<path d="M3776 3998 c3 -5 10 -6 15 -3 13 9 11 12 -6 12 -8 0 -12 -4 -9 -9z"/>
<path d="M1647 3953 c-13 -12 -7 -33 9 -33 14 0 15 2 3 17 -10 11 -10 14 -1 9
6 -4 12 -2 12 3 0 12 -13 14 -23 4z"/>
<path d="M1206 3939 c6 -10 -44 -17 -54 -7 -5 5 -9 3 -9 -6 0 -17 48 -11 87
10 l25 13 -27 -1 c-15 -1 -25 -5 -22 -9z"/>
<path d="M1690 3940 c-9 -6 -10 -10 -3 -10 6 0 15 5 18 10 8 12 4 12 -15 0z"/>
<path d="M1106 3918 c3 -4 9 -8 15 -8 5 0 9 4 9 8 0 5 -7 9 -15 9 -8 0 -12 -4
-9 -9z"/>
<path d="M3156 3913 c-6 -14 -5 -15 5 -6 7 7 10 15 7 18 -3 3 -9 -2 -12 -12z"/>
<path d="M3800 3926 c0 -2 7 -7 16 -10 8 -3 12 -2 9 4 -6 10 -25 14 -25 6z"/>
<path d="M3318 3870 c-3 -10 -17 -13 -50 -11 -45 2 -70 -11 -47 -25 8 -4 9 -3
5 4 -5 8 4 12 29 12 20 0 34 -4 30 -9 -3 -6 3 -9 14 -8 11 0 18 4 15 8 -2 4 1
9 7 11 7 2 10 11 7 19 -4 12 -5 12 -10 -1z"/>
<path d="M1106 3858 c3 -5 10 -6 15 -3 13 9 11 12 -6 12 -8 0 -12 -4 -9 -9z"/>
<path d="M1725 3860 c-3 -5 -1 -10 4 -10 6 0 11 5 11 10 0 6 -2 10 -4 10 -3 0
-8 -4 -11 -10z"/>
<path d="M1030 3820 c0 -5 5 -10 11 -10 5 0 7 5 4 10 -3 6 -8 10 -11 10 -2 0
-4 -4 -4 -10z"/>
<path d="M3236 3808 c3 -5 10 -6 15 -3 13 9 11 12 -6 12 -8 0 -12 -4 -9 -9z"/>
<path d="M3270 3810 c0 -6 7 -10 15 -10 8 0 15 2 15 4 0 2 -7 6 -15 10 -8 3
-15 1 -15 -4z"/>
<path d="M1106 3773 c-5 -13 -4 -14 9 -3 10 8 15 9 15 1 0 -6 8 -11 18 -10 10
0 12 3 4 6 -6 2 -10 8 -8 12 3 4 -4 7 -14 8 -10 1 -21 -5 -24 -14z"/>
<path d="M3298 3783 c7 -3 16 -2 19 1 4 3 -2 6 -13 5 -11 0 -14 -3 -6 -6z"/>
<path d="M3818 3773 c6 -2 18 -2 25 0 6 3 1 5 -13 5 -14 0 -19 -2 -12 -5z"/>
<path d="M3235 3760 c3 -5 8 -10 11 -10 2 0 4 5 4 10 0 6 -5 10 -11 10 -5 0
-7 -4 -4 -10z"/>
<path d="M3280 3759 c0 -5 5 -7 10 -4 6 3 10 8 10 11 0 2 -4 4 -10 4 -5 0 -10
-5 -10 -11z"/>
<path d="M3297 3689 c7 -7 15 -10 18 -7 3 3 -2 9 -12 12 -14 6 -15 5 -6 -5z"/>
<path d="M3827 3681 c-4 -17 -3 -21 5 -13 5 5 8 16 6 23 -3 8 -7 3 -11 -10z"/>
<path d="M3070 3651 c-6 -11 -6 -22 -1 -25 5 -3 11 5 13 19 6 30 2 32 -12 6z"/>
<path d="M3740 3662 c0 -15 25 -21 41 -11 9 5 9 9 2 9 -6 0 -18 3 -27 6 -9 3
-16 2 -16 -4z"/>
<path d="M1118 3633 c7 -3 16 -2 19 1 4 3 -2 6 -13 5 -11 0 -14 -3 -6 -6z"/>
<path d="M3750 3620 c0 -5 5 -10 10 -10 6 0 10 5 10 10 0 6 -4 10 -10 10 -5 0
-10 -4 -10 -10z"/>
<path d="M2044 3588 c1 -10 4 -18 9 -18 27 0 30 2 12 10 -17 7 -17 9 -2 9 9 1
17 5 17 10 0 6 -8 9 -19 8 -11 0 -18 -8 -17 -19z"/>
<path d="M2855 3580 c-3 -5 -1 -10 4 -10 6 0 11 5 11 10 0 6 -2 10 -4 10 -3 0
-8 -4 -11 -10z"/>
<path d="M2893 3571 c0 -11 5 -18 9 -15 4 3 5 11 1 19 -7 21 -12 19 -10 -4z"/>
<path d="M1321 3564 c0 -11 3 -14 6 -6 3 7 2 16 -1 19 -3 4 -6 -2 -5 -13z"/>
<path d="M3520 3564 c0 -8 5 -12 10 -9 6 4 8 11 5 16 -9 14 -15 11 -15 -7z"/>
<path d="M3013 3538 c2 -7 10 -12 16 -10 6 1 11 -3 11 -10 0 -6 3 -8 6 -5 8 8
-14 37 -28 37 -5 0 -8 -6 -5 -12z"/>
<path d="M2990 3525 c0 -8 4 -15 10 -15 5 0 7 7 4 15 -4 8 -8 15 -10 15 -2 0
-4 -7 -4 -15z"/>
<path d="M2916 3518 c3 -5 10 -6 15 -3 13 9 11 12 -6 12 -8 0 -12 -4 -9 -9z"/>
<path d="M1590 3500 c-12 -8 -10 -10 8 -10 13 0 20 4 17 10 -7 12 -6 12 -25 0z"/>
<path d="M3470 3480 c-12 -12 -18 -25 -15 -31 8 -12 27 0 22 14 -2 7 3 17 12
24 9 7 13 13 9 13 -5 0 -17 -9 -28 -20z"/>
<path d="M2088 3453 c7 -3 16 -2 19 1 4 3 -2 6 -13 5 -11 0 -14 -3 -6 -6z"/>
<path d="M1497 3433 c3 -7 6 -13 8 -13 2 0 5 6 8 13 3 8 -1 14 -8 14 -7 0 -11
-6 -8 -14z"/>
<path d="M1543 3435 c0 -8 4 -12 9 -9 4 3 8 9 8 15 0 5 -4 9 -8 9 -5 0 -9 -7
-9 -15z"/>
<path d="M1581 3440 c8 -6 8 -9 -2 -12 -8 -3 0 -5 17 -4 17 0 31 6 31 13 0 6
-13 11 -29 11 -17 -1 -24 -4 -17 -8z"/>
<path d="M2923 3438 c1 -7 -5 -11 -13 -10 -8 2 -11 0 -7 -4 12 -12 38 -14 30
-1 -4 7 0 8 13 2 25 -10 74 -14 69 -5 -3 4 -16 8 -31 8 -14 0 -29 3 -33 8 -10
14 -31 15 -28 2z"/>
<path d="M3481 3421 c-8 -5 -9 -11 -3 -15 5 -3 12 1 16 9 6 17 6 18 -13 6z"/>
<path d="M2950 3403 c0 -5 -25 -9 -55 -8 -30 1 -60 -2 -66 -6 -6 -3 16 -6 50
-5 34 1 61 -1 61 -5 0 -8 26 -6 35 3 3 3 -1 11 -10 18 -8 7 -15 8 -15 3z"/>
<path d="M1458 3343 c7 -3 16 -2 19 1 4 3 -2 6 -13 5 -11 0 -14 -3 -6 -6z"/>
<path d="M3485 3340 c-3 -5 -1 -10 4 -10 6 0 11 5 11 10 0 6 -2 10 -4 10 -3 0
-8 -4 -11 -10z"/>
<path d="M2926 3315 c-3 -9 -12 -12 -23 -9 -15 5 -15 4 -4 -4 16 -12 51 1 51
18 0 15 -17 12 -24 -5z"/>
<path d="M1381 3304 c0 -11 3 -14 6 -6 3 7 2 16 -1 19 -3 4 -6 -2 -5 -13z"/>
<path d="M2790 3304 c0 -8 5 -12 10 -9 6 4 8 11 5 16 -9 14 -15 11 -15 -7z"/>
<path d="M3790 3261 c0 -6 4 -13 10 -16 6 -3 7 1 4 9 -7 18 -14 21 -14 7z"/>
<path d="M1150 3246 c0 -2 7 -7 16 -10 8 -3 12 -2 9 4 -6 10 -25 14 -25 6z"/>
<path d="M1130 3209 c0 -5 5 -7 10 -4 6 3 10 8 10 11 0 2 -4 4 -10 4 -5 0 -10
-5 -10 -11z"/>
<path d="M1175 3171 c3 -5 -7 -12 -22 -14 -26 -4 -26 -4 5 -6 22 -1 32 3 32
14 0 8 -5 15 -11 15 -5 0 -8 -4 -4 -9z"/>
<path d="M1139 3028 c-5 -18 -6 -38 -1 -34 7 8 12 36 6 36 -2 0 -4 -1 -5 -2z"/>
<path d="M4153 2901 c-1 -14 4 -17 25 -13 17 3 21 7 12 10 -8 3 -20 8 -25 13
-7 5 -11 1 -12 -10z"/>
<path d="M776 2882 c-3 -5 1 -9 9 -9 8 0 12 4 9 9 -3 4 -7 8 -9 8 -2 0 -6 -4
-9 -8z"/>
<path d="M796 2818 c3 -5 10 -6 15 -3 13 9 11 12 -6 12 -8 0 -12 -4 -9 -9z"/>
<path d="M830 2820 c0 -5 5 -10 10 -10 6 0 10 5 10 10 0 6 -4 10 -10 10 -5 0
-10 -4 -10 -10z"/>
<path d="M750 2760 c0 -5 5 -10 11 -10 5 0 7 5 4 10 -3 6 -8 10 -11 10 -2 0
-4 -4 -4 -10z"/>
<path d="M784 2759 c-5 -8 -3 -9 6 -4 7 4 16 2 22 -6 8 -12 9 -12 6 0 -6 20
-24 25 -34 10z"/>
<path d="M4166 2697 c3 -10 9 -15 12 -12 3 3 0 11 -7 18 -10 9 -11 8 -5 -6z"/>
<path d="M790 2670 c-9 -6 -10 -10 -3 -10 6 0 15 5 18 10 8 12 4 12 -15 0z"/>
<path d="M828 2663 c7 -3 16 -2 19 1 4 3 -2 6 -13 5 -11 0 -14 -3 -6 -6z"/>
<path d="M900 2639 c0 -5 5 -7 10 -4 6 4 19 1 28 -7 15 -12 16 -11 3 5 -15 19
-41 23 -41 6z"/>
<path d="M590 2610 c0 -5 5 -10 10 -10 6 0 10 5 10 10 0 6 -4 10 -10 10 -5 0
-10 -4 -10 -10z"/>
<path d="M631 2594 c0 -11 3 -14 6 -6 3 7 2 16 -1 19 -3 4 -6 -2 -5 -13z"/>
<path d="M4177 2584 c3 -7 9 -14 14 -14 14 0 10 17 -5 23 -10 4 -13 1 -9 -9z"/>
<path d="M493 2515 c0 -8 4 -15 9 -15 4 0 8 4 8 9 0 6 -4 12 -8 15 -5 3 -9 -1
-9 -9z"/>
<path d="M4475 2514 c-16 -12 -17 -14 -2 -14 9 0 17 -7 17 -17 0 -23 13 -7 15
18 2 26 -6 30 -30 13z"/>
<path d="M455 2511 c-3 -5 0 -13 6 -17 7 -4 9 -3 5 4 -3 5 0 13 6 15 9 4 10 6
1 6 -6 1 -14 -3 -18 -8z"/>
<path d="M4510 2455 c0 -8 2 -15 4 -15 2 0 6 7 10 15 3 8 1 15 -4 15 -6 0 -10
-7 -10 -15z"/>
<path d="M4460 2450 c0 -3 4 -10 8 -17 6 -9 11 -7 20 7 10 16 9 18 -8 17 -11
-1 -20 -4 -20 -7z"/>
<path d="M498 2413 c7 -3 16 -2 19 1 4 3 -2 6 -13 5 -11 0 -14 -3 -6 -6z"/>
<path d="M536 2391 c8 -8 44 -8 44 1 0 4 -11 7 -25 6 -13 -1 -22 -4 -19 -7z"/>
<path d="M498 2383 c7 -3 16 -2 19 1 4 3 -2 6 -13 5 -11 0 -14 -3 -6 -6z"/>
<path d="M4465 2331 c-5 -9 10 -51 19 -51 2 0 6 9 9 20 6 22 -17 48 -28 31z"/>
<path d="M4515 2322 c3 -3 0 -11 -7 -19 -6 -7 -9 -15 -7 -17 2 -2 12 6 21 18
13 18 14 23 2 23 -8 0 -12 -3 -9 -5z"/>
<path d="M4493 2253 c0 -6 5 -9 11 -5 6 4 14 7 18 7 19 0 14 11 -6 11 -12 0
-23 -6 -23 -13z"/>
<path d="M511 2238 c-1 -20 14 -24 25 -6 4 6 3 8 -4 4 -5 -3 -13 0 -15 6 -3 8
-6 6 -6 -4z"/>
<path d="M4460 2235 c0 -18 11 -24 32 -16 15 5 13 8 -7 18 -20 9 -25 8 -25 -2z"/>
<path d="M375 2200 c-2 -3 12 -6 31 -7 19 -1 34 1 34 5 0 8 -60 10 -65 2z"/>
<path d="M3910 2188 c0 -8 7 -9 48 -11 9 -1 19 -5 22 -9 3 -4 11 2 18 12 7 12
8 20 2 20 -5 0 -10 -5 -10 -11 0 -5 -5 -7 -12 -3 -16 10 -68 11 -68 2z"/>
<path d="M435 2170 c-3 -6 1 -7 9 -4 18 7 21 14 7 14 -6 0 -13 -4 -16 -10z"/>
<path d="M3966 2145 c4 -9 13 -14 20 -11 17 7 28 -10 13 -20 -7 -4 -9 -3 -6 3
4 6 -5 9 -25 7 -17 -2 -38 2 -46 9 -11 8 -13 8 -9 0 4 -6 2 -13 -5 -15 -7 -3
5 -6 27 -7 22 -1 54 -3 72 -5 29 -3 30 -2 20 15 -7 11 -15 20 -19 20 -20 3
-24 5 -35 12 -9 6 -11 3 -7 -8z"/>
<path d="M1149 2102 c-13 -15 -12 -16 3 -4 13 10 17 10 21 0 4 -9 6 -9 6 -1 2
20 -16 24 -30 5z"/>
<path d="M433 2103 c4 -3 2 -11 -3 -18 -7 -8 -6 -12 3 -12 7 0 14 9 14 19 1
10 -3 18 -9 18 -6 0 -8 -3 -5 -7z"/>
<path d="M1039 2093 c-13 -16 -12 -17 4 -4 9 7 17 15 17 17 0 8 -8 3 -21 -13z"/>
<path d="M3866 2081 c-3 -4 4 -7 14 -6 27 2 33 10 10 12 -11 1 -22 -2 -24 -6z"/>
<path d="M3920 2082 c0 -5 7 -9 15 -9 8 0 15 4 15 9 0 4 -7 8 -15 8 -8 0 -15
-4 -15 -8z"/>
<path d="M1130 2075 c0 -8 29 -12 39 -5 9 5 4 8 -13 8 -14 0 -26 -2 -26 -3z"/>
<path d="M3770 2060 c0 -5 5 -10 11 -10 5 0 7 5 4 10 -3 6 -8 10 -11 10 -2 0
-4 -4 -4 -10z"/>
<path d="M3916 2047 c3 -10 9 -15 12 -12 3 3 0 11 -7 18 -10 9 -11 8 -5 -6z"/>
<path d="M4053 2053 c9 -2 23 -2 30 0 6 3 -1 5 -18 5 -16 0 -22 -2 -12 -5z"/>
<path d="M408 2038 c5 -5 16 -8 23 -6 8 3 3 7 -10 11 -17 4 -21 3 -13 -5z"/>
<path d="M3893 2025 c0 -8 4 -12 9 -9 5 3 6 10 3 15 -9 13 -12 11 -12 -6z"/>
<path d="M3954 2033 c15 -4 16 -7 5 -15 -11 -7 -11 -9 -1 -6 20 5 16 23 -5 25
-15 2 -15 1 1 -4z"/>
<path d="M1015 2010 c-3 -5 -1 -10 4 -10 6 0 11 5 11 10 0 6 -2 10 -4 10 -3 0
-8 -4 -11 -10z"/>
<path d="M386 1978 c3 -5 10 -6 15 -3 13 9 11 12 -6 12 -8 0 -12 -4 -9 -9z"/>
<path d="M1010 1986 c0 -2 8 -10 18 -17 15 -13 16 -12 3 4 -13 16 -21 21 -21
13z"/>
<path d="M3817 1983 c-4 -3 -7 -11 -7 -17 0 -6 5 -5 12 2 6 6 9 14 7 17 -3 3
-9 2 -12 -2z"/>
<path d="M473 1955 c0 -8 4 -12 9 -9 5 3 6 10 3 15 -9 13 -12 11 -12 -6z"/>
<path d="M3770 1959 c0 -5 5 -7 10 -4 6 3 10 8 10 11 0 2 -4 4 -10 4 -5 0 -10
-5 -10 -11z"/>
<path d="M1024 1935 c4 -24 16 -30 16 -7 0 12 -4 22 -9 22 -5 0 -8 -7 -7 -15z"/>
<path d="M3800 1941 c0 -5 -15 -7 -32 -4 -32 4 -32 4 -15 -14 14 -15 19 -15
26 -4 6 9 10 10 12 2 2 -6 10 -2 17 9 7 12 8 20 2 20 -5 0 -10 -4 -10 -9z"/>
<path d="M474 1913 c2 -10 6 -17 10 -16 15 3 16 11 2 22 -12 10 -14 9 -12 -6z"/>
<path d="M1156 1918 c3 -5 10 -6 15 -3 13 9 11 12 -6 12 -8 0 -12 -4 -9 -9z"/>
<path d="M1223 1916 c0 -8 12 -12 29 -11 32 2 44 10 29 20 -6 3 -11 1 -11 -4
0 -6 -5 -11 -11 -11 -5 0 -8 4 -5 8 2 4 -3 8 -13 9 -10 1 -18 -4 -18 -11z"/>
<path d="M4095 1920 c-3 -5 -1 -10 4 -10 6 0 11 5 11 10 0 6 -2 10 -4 10 -3 0
-8 -4 -11 -10z"/>
<path d="M3995 1901 c3 -3 17 -6 31 -7 13 0 22 2 19 5 -3 3 -17 6 -31 7 -13 0
-22 -2 -19 -5z"/>
<path d="M3754 1889 c-3 -5 -11 -6 -17 -3 -7 4 -9 3 -4 -1 10 -12 47 -14 47
-3 0 5 6 6 13 2 6 -4 8 -3 4 1 -11 13 -36 15 -43 4z"/>
<path d="M428 1873 c7 -3 16 -2 19 1 4 3 -2 6 -13 5 -11 0 -14 -3 -6 -6z"/>
<path d="M1161 1844 c0 -11 3 -14 6 -6 3 7 2 16 -1 19 -3 4 -6 -2 -5 -13z"/>
<path d="M430 1839 c0 -5 11 -9 25 -9 14 0 25 2 25 4 0 2 -11 6 -25 8 -14 3
-25 1 -25 -3z"/>
<path d="M533 1843 c-33 -6 -28 -18 7 -19 19 -1 30 4 30 12 0 8 -3 13 -7 13
-5 -1 -18 -4 -30 -6z"/>
<path d="M2590 1834 c0 -8 5 -12 10 -9 6 3 10 10 10 16 0 5 -4 9 -10 9 -5 0
-10 -7 -10 -16z"/>
<path d="M2821 1834 c0 -11 3 -14 6 -6 3 7 2 16 -1 19 -3 4 -6 -2 -5 -13z"/>
<path d="M3305 1839 c-4 -6 -5 -12 -2 -15 2 -3 7 2 10 11 7 17 1 20 -8 4z"/>
<path d="M3907 1839 c7 -7 15 -10 18 -7 3 3 -2 9 -12 12 -14 6 -15 5 -6 -5z"/>
<path d="M3946 1840 c3 -3 11 -5 17 -5 7 -1 11 -6 9 -13 -1 -9 3 -9 18 0 28
18 25 24 -15 24 -19 0 -32 -3 -29 -6z"/>
<path d="M2212 1820 c0 -14 2 -19 5 -12 2 6 2 18 0 25 -3 6 -5 1 -5 -13z"/>
<path d="M1010 1820 c-13 -8 -12 -10 3 -10 9 0 17 5 17 10 0 12 -1 12 -20 0z"/>
<path d="M2081 1814 c0 -11 3 -14 6 -6 3 7 2 16 -1 19 -3 4 -6 -2 -5 -13z"/>
<path d="M2362 1810 c0 -14 2 -19 5 -12 2 6 2 18 0 25 -3 6 -5 1 -5 -13z"/>
<path d="M2475 1810 c-3 -5 -1 -10 4 -10 6 0 11 5 11 10 0 6 -2 10 -4 10 -3 0
-8 -4 -11 -10z"/>
<path d="M413 1795 c0 -8 4 -12 9 -9 5 3 6 10 3 15 -9 13 -12 11 -12 -6z"/>
<path d="M3278 1803 c7 -3 16 -2 19 1 4 3 -2 6 -13 5 -11 0 -14 -3 -6 -6z"/>
<path d="M1118 1783 c6 -2 18 -2 25 0 6 3 1 5 -13 5 -14 0 -19 -2 -12 -5z"/>
<path d="M3930 1765 c0 -8 4 -15 8 -15 5 0 9 7 9 15 0 8 -4 15 -9 15 -4 0 -8
-7 -8 -15z"/>
<path d="M4381 1771 c-10 -7 -10 -10 -1 -16 6 -4 16 -3 22 3 13 13 -4 23 -21
13z"/>
<path d="M3155 1760 c-3 -5 -1 -10 4 -10 6 0 11 5 11 10 0 6 -2 10 -4 10 -3 0
-8 -4 -11 -10z"/>
<path d="M3230 1759 c0 -3 25 -7 57 -8 31 0 53 2 49 6 -9 10 -106 12 -106 2z"/>
<path d="M3876 1762 c-3 -5 1 -9 9 -9 8 0 15 4 15 9 0 4 -4 8 -9 8 -6 0 -12
-4 -15 -8z"/>
<path d="M1696 1752 c-3 -5 1 -9 9 -9 8 0 12 4 9 9 -3 4 -7 8 -9 8 -2 0 -6 -4
-9 -8z"/>
<path d="M3704 1735 c4 -25 34 -39 52 -25 7 7 14 17 14 22 0 5 -7 2 -16 -6 -8
-9 -21 -13 -27 -9 -7 4 -4 9 9 14 10 4 14 8 7 8 -6 1 -18 4 -26 7 -11 4 -15 0
-13 -11z"/>
<path d="M3893 1725 c0 -8 4 -15 9 -15 4 0 8 4 8 9 0 6 -4 12 -8 15 -5 3 -9
-1 -9 -9z"/>
<path d="M3953 1733 c4 -3 5 -9 1 -14 -3 -5 0 -8 8 -7 7 2 12 -4 10 -12 -2
-13 -1 -13 10 0 7 8 22 14 34 12 13 -2 21 3 21 12 0 9 -7 13 -21 9 -27 -6 -38
-6 -56 -1 -8 3 -12 3 -7 1z"/>
<path d="M3210 1722 c0 -4 9 -8 20 -9 11 -1 20 2 20 5 0 4 -9 8 -20 9 -11 1
-20 -2 -20 -5z"/>
<path d="M3850 1720 c0 -5 5 -10 11 -10 5 0 7 5 4 10 -3 6 -8 10 -11 10 -2 0
-4 -4 -4 -10z"/>
<path d="M480 1712 c23 -4 24 -5 5 -12 -15 -5 -8 -8 27 -11 45 -4 46 -3 28 13
-22 21 -34 23 -24 6 6 -10 4 -10 -7 0 -7 6 -22 11 -33 11 -17 -1 -16 -3 4 -7z"/>
<path d="M990 1710 c-32 -5 -33 -6 -11 -12 14 -4 31 -2 39 4 11 9 13 9 10 -3
-1 -8 1 -14 7 -14 5 0 10 7 10 16 2 17 -2 18 -55 9z"/>
<path d="M3780 1700 c18 -12 30 -13 30 -2 0 4 -10 9 -22 9 -18 2 -20 0 -8 -7z"/>
<path d="M4388 1703 c7 -3 16 -2 19 1 4 3 -2 6 -13 5 -11 0 -14 -3 -6 -6z"/>
<path d="M3178 1693 c7 -3 16 -2 19 1 4 3 -2 6 -13 5 -11 0 -14 -3 -6 -6z"/>
<path d="M3995 1689 c-4 -6 -5 -12 -2 -15 2 -3 7 2 10 11 7 17 1 20 -8 4z"/>
<path d="M3297 1674 c-4 -4 -3 -12 0 -18 13 -20 13 -48 1 -65 -10 -13 -10 -14
2 -4 9 8 19 9 32 2 12 -6 18 -6 18 1 0 5 -7 10 -15 10 -21 0 -19 13 5 35 20
18 17 40 -5 31 -7 -2 -17 0 -22 5 -5 5 -12 6 -16 3z m37 -17 c4 4 4 0 0 -10
-3 -9 -11 -17 -17 -17 -6 0 -7 3 -4 7 4 3 1 13 -6 22 -10 14 -10 14 4 4 9 -7
19 -10 23 -6z"/>
<path d="M3776 1668 c3 -5 10 -6 15 -3 13 9 11 12 -6 12 -8 0 -12 -4 -9 -9z"/>
<path d="M366 1658 c3 -5 10 -6 15 -3 13 9 11 12 -6 12 -8 0 -12 -4 -9 -9z"/>
<path d="M405 1660 c-2 -3 18 -6 43 -8 26 -2 51 -7 57 -13 5 -5 14 -9 20 -9 5
0 3 4 -5 10 -8 5 -12 12 -8 15 3 3 13 -1 21 -10 20 -20 23 -19 23 4 0 18 -7
20 -74 18 -41 -1 -75 -4 -77 -7z"/>
<path d="M1106 1653 c-6 -14 -5 -15 5 -6 7 7 10 15 7 18 -3 3 -9 -2 -12 -12z"/>
<path d="M3216 1661 c8 -8 43 -8 38 0 -2 4 -13 7 -24 6 -10 -1 -17 -3 -14 -6z"/>
<path d="M3270 1661 c0 -6 4 -13 10 -16 6 -3 7 1 4 9 -7 18 -14 21 -14 7z"/>
<path d="M1066 1648 c3 -5 10 -6 15 -3 13 9 11 12 -6 12 -8 0 -12 -4 -9 -9z"/>
<path d="M3773 1637 c0 -7 9 -14 20 -14 11 -1 18 -1 16 0 -2 2 -11 8 -20 15
-12 9 -16 9 -16 -1z"/>
<path d="M3238 1630 c7 -8 18 -15 25 -15 7 -1 11 -7 9 -15 -3 -11 0 -11 12 -1
16 13 12 36 -4 26 -4 -3 -11 1 -13 7 -4 10 -6 9 -6 -1 -1 -11 -4 -11 -18 0
-16 11 -16 11 -5 -1z"/>
<path d="M487 1619 c7 -7 15 -10 18 -7 3 3 -2 9 -12 12 -14 6 -15 5 -6 -5z"/>
<path d="M3196 1622 c-3 -4 4 -9 15 -9 23 -2 25 3 4 10 -8 4 -16 3 -19 -1z"/>
<path d="M525 1609 c-4 -6 -5 -12 -2 -15 2 -3 7 2 10 11 7 17 1 20 -8 4z"/>
<path d="M4446 1595 c-3 -9 0 -15 8 -15 7 0 13 7 13 15 0 8 -4 15 -8 15 -4 0
-9 -7 -13 -15z"/>
<path d="M500 1591 c0 -17 38 -33 46 -19 4 6 3 8 -4 4 -6 -3 -18 1 -26 10 -9
8 -16 11 -16 5z"/>
<path d="M1212 1584 c-22 -10 -38 -11 -51 -5 -14 8 -17 6 -16 -9 1 -11 5 -23
10 -27 4 -5 5 -3 1 4 -3 6 -2 14 4 18 5 3 10 -3 10 -14 0 -16 5 -19 28 -16 15
2 30 4 34 4 4 1 5 8 2 16 -4 8 -1 22 6 30 15 18 15 18 -28 -1z m8 -26 c0 -4
-9 -8 -21 -8 -11 0 -18 4 -15 8 3 5 12 9 21 9 8 0 15 -4 15 -9z"/>
<path d="M4028 1593 c7 -3 16 -2 19 1 4 3 -2 6 -13 5 -11 0 -14 -3 -6 -6z"/>
<path d="M1115 1570 c-3 -5 -1 -10 4 -10 6 0 11 5 11 10 0 6 -2 10 -4 10 -3 0
-8 -4 -11 -10z"/>
<path d="M2142 1560 c0 -14 2 -19 5 -12 2 6 2 18 0 25 -3 6 -5 1 -5 -13z"/>
<path d="M2931 1564 c0 -11 3 -14 6 -6 3 7 2 16 -1 19 -3 4 -6 -2 -5 -13z"/>
<path d="M1082 1557 c-8 -10 -6 -13 11 -14 12 0 16 1 9 4 -6 3 -10 9 -6 14 8
14 -2 11 -14 -4z"/>
<path d="M1731 1554 c0 -11 3 -14 6 -6 3 7 2 16 -1 19 -3 4 -6 -2 -5 -13z"/>
<path d="M3690 1555 c-7 -8 -1 -12 20 -12 17 0 30 5 30 12 0 6 -9 11 -21 11
-11 0 -24 -5 -29 -11z"/>
<path d="M4465 1560 c-3 -5 -1 -10 4 -10 6 0 11 5 11 10 0 6 -2 10 -4 10 -3 0
-8 -4 -11 -10z"/>
<path d="M1007 1553 c-4 -3 -7 -15 -7 -25 0 -22 22 -20 28 3 3 11 1 11 -8 -1
-10 -12 -11 -11 -7 8 5 23 4 26 -6 15z"/>
<path d="M3170 1540 c0 -5 5 -10 11 -10 5 0 7 5 4 10 -3 6 -8 10 -11 10 -2 0
-4 -4 -4 -10z"/>
<path d="M1805 1530 c-3 -5 -1 -10 4 -10 6 0 11 5 11 10 0 6 -2 10 -4 10 -3 0
-8 -4 -11 -10z"/>
<path d="M1235 1520 c3 -5 8 -10 11 -10 2 0 4 5 4 10 0 6 -5 10 -11 10 -5 0
-7 -4 -4 -10z"/>
<path d="M2285 1521 c-3 -5 -2 -12 3 -15 5 -3 9 1 9 9 0 17 -3 19 -12 6z"/>
<path d="M4500 1520 c0 -5 5 -10 11 -10 5 0 7 5 4 10 -3 6 -8 10 -11 10 -2 0
-4 -4 -4 -10z"/>
<path d="M2525 1493 c-16 -12 -16 -14 -3 -10 10 3 20 2 24 -4 4 -6 11 -6 20 2
16 13 19 -1 4 -19 -7 -9 -7 -9 2 -2 14 12 51 -7 45 -23 -3 -8 7 -12 29 -12 41
1 49 8 35 32 -9 16 -10 16 -11 1 0 -10 -7 -15 -17 -13 -10 2 -22 4 -27 4 -6 1
-5 6 1 12 6 6 9 19 6 29 -4 15 -10 17 -28 10 -15 -6 -27 -4 -34 3 -7 7 -11 8
-9 2 2 -5 -1 -11 -7 -12 -5 -2 -9 2 -7 7 3 13 1 12 -23 -7z m98 -16 c-2 -4 -5
-7 -8 -7 -3 0 -9 0 -15 0 -5 0 -10 4 -10 9 0 5 8 8 18 7 9 -2 16 -6 15 -9z"/>
<path d="M922 1465 c0 -16 2 -22 5 -12 2 9 2 23 0 30 -3 6 -5 -1 -5 -18z"/>
<path d="M2402 1468 c4 -8 1 -21 -5 -27 -6 -6 -9 -12 -6 -14 2 -2 11 4 20 13
14 14 14 18 0 30 -13 12 -14 12 -9 -2z"/>
<path d="M3410 1455 c-7 -9 -10 -18 -6 -22 3 -3 6 -1 6 5 0 7 5 12 11 12 5 0
8 -4 4 -9 -3 -5 0 -13 7 -17 7 -4 10 -4 6 1 -4 4 0 14 10 22 16 12 16 13 -2 6
-13 -4 -17 -3 -12 5 11 17 -9 15 -24 -3z"/>
<path d="M4337 1463 c-4 -3 -7 -11 -7 -17 0 -6 5 -5 12 2 6 6 9 14 7 17 -3 3
-9 2 -12 -2z"/>
<path d="M2507 1439 c7 -7 15 -10 18 -7 3 3 -2 9 -12 12 -14 6 -15 5 -6 -5z"/>
<path d="M2590 1439 c0 -5 -5 -7 -11 -3 -8 5 -8 1 0 -13 6 -11 8 -22 6 -25 -2
-2 5 -4 15 -4 11 0 20 4 20 8 0 4 -7 8 -16 8 -11 0 -14 6 -9 20 3 11 4 20 1
20 -3 0 -6 -5 -6 -11z"/>
<path d="M2418 1423 c7 -3 16 -2 19 1 4 3 -2 6 -13 5 -11 0 -14 -3 -6 -6z"/>
<path d="M1619 1418 c0 -2 -2 -11 -4 -21 -3 -15 -1 -16 11 -6 7 6 11 15 8 20
-5 9 -13 12 -15 7z"/>
<path d="M1575 1400 c-3 -5 -2 -10 4 -10 5 0 13 5 16 10 3 6 2 10 -4 10 -5 0
-13 -4 -16 -10z"/>
<path d="M2373 1395 c0 -22 24 -26 39 -7 12 15 11 16 -4 3 -16 -12 -18 -11
-18 3 0 9 -4 16 -8 16 -5 0 -9 -7 -9 -15z"/>
<path d="M2555 1400 c3 -5 8 -10 11 -10 2 0 4 5 4 10 0 6 -5 10 -11 10 -5 0
-7 -4 -4 -10z"/>
<path d="M2518 1373 c7 -3 16 -2 19 1 4 3 -2 6 -13 5 -11 0 -14 -3 -6 -6z"/>
<path d="M1556 1361 c7 -8 64 -8 64 0 0 3 -16 6 -35 6 -19 -1 -32 -3 -29 -6z"/>
<path d="M1470 1356 c0 -2 8 -10 18 -17 15 -13 16 -12 3 4 -13 16 -21 21 -21
13z"/>
<path d="M3431 1314 c6 -8 10 -14 8 -15 -2 0 -24 -2 -48 -4 -24 -2 -46 -7 -50
-11 -3 -3 13 -4 37 0 32 4 41 3 36 -7 -4 -6 5 -1 19 12 15 14 27 25 27 27 0 1
-9 4 -21 7 -16 4 -18 3 -8 -9z"/>
<path d="M2600 1310 c-9 -6 -10 -10 -3 -10 6 0 15 5 18 10 8 12 4 12 -15 0z"/>
<path d="M2536 1302 c-3 -5 1 -9 9 -9 8 0 12 4 9 9 -3 4 -7 8 -9 8 -2 0 -6 -4
-9 -8z"/>
<path d="M2410 1265 c0 -8 4 -15 10 -15 5 0 7 7 4 15 -4 8 -8 15 -10 15 -2 0
-4 -7 -4 -15z"/>
<path d="M1426 1238 c3 -5 10 -6 15 -3 13 9 11 12 -6 12 -8 0 -12 -4 -9 -9z"/>
<path d="M3410 1216 c0 -2 7 -7 16 -10 8 -3 12 -2 9 4 -6 10 -25 14 -25 6z"/>
<path d="M1500 1198 c0 -4 4 -8 9 -8 6 0 12 4 15 8 3 5 -1 9 -9 9 -8 0 -15 -4
-15 -9z"/>
<path d="M2640 1180 c18 -12 30 -13 30 -2 0 4 -10 9 -22 9 -18 2 -20 0 -8 -7z"/>
<path d="M3041 1124 c0 -11 3 -14 6 -6 3 7 2 16 -1 19 -3 4 -6 -2 -5 -13z"/>
<path d="M2391 1114 c0 -11 3 -14 6 -6 3 7 2 16 -1 19 -3 4 -6 -2 -5 -13z"/>
<path d="M2411 1114 c0 -11 3 -14 6 -6 3 7 2 16 -1 19 -3 4 -6 -2 -5 -13z"/>
</g>
</svg>
